<mxfile host="65bd71144e" modified="2021-03-07T05:51:28.510Z" agent="5.0 (Windows NT 10.0; Win64; x64) AppleWebKit/537.36 (KHTML, like Gecko) Code/1.54.1 Chrome/87.0.4280.141 Electron/11.3.0 Safari/537.36" version="14.2.4" etag="udV9lu2m6tGjI2sMoaRr" type="embed">
    <diagram id="NtjndpHSfsHdFDsvPZM9" name="Page-1">
        <mxGraphModel dx="1151" dy="534" grid="1" gridSize="10" guides="1" tooltips="1" connect="1" arrows="1" fold="1" page="1" pageScale="1" pageWidth="827" pageHeight="1169" math="0" shadow="0">
            <root>
                <mxCell id="0"/>
                <mxCell id="1" parent="0"/>
                <mxCell id="40" value="" style="shape=image;verticalLabelPosition=bottom;verticalAlign=top;imageAspect=0;aspect=fixed;image=data:image/png,iVBORw0KGgoAAAANSUhEUgAAAtoAAAL0CAMAAAAFlmBHAAABmFBMVEVMaXEAAAAAAAAPDw+bm5sAAAD///9tbW0kJCQGBgY4ODiHh4dKSkp3d3cAAAAfHx8RERFTU1NycnIAAAAoKChjY2MdHR0aGhpeXl4AAAAAAAAAAAAAAAAAAAAAAAAsLCwAAABPT0+Li4sHBwcvLy8FBQWsrKwAAAAAAABAQEAAAAA9PT0NDQ17e3sICAhERERnZ2cEBARra2sTExP///9ZWVkXFxdGRkb///80NDQAAACXl5dbW1v///////9XV1cUFBT///82Njb///8YGBj///////8lJSUiIiIAAAAvLy9ISEg9PT3q6uoAAAAJCQkAAABOTk5vb2/////h4eH///+8vLwAAAB1dXVCQkKRkZHMzMyCgoL///8FBQUnJyfW1taxsbH///85OTmHh4f///9iYmJQUFD///8dHR1cXFxsbGz///////////8WFhabm5v///9WVlaZmZkyMjL///8AAAC/v7/v7+/Pz8/f39+vr68PDw8/Pz+fn59/f38vLy8fHx9fX1+Pj49vb29PT08jIyMNDQ397YjDAAAAdXRSTlMAwIDu9kDA4OD24u7i8BDt8O3o8OTr6+jkYKDg0CAw6JDo9/fr9fVQsOtw5+z4+PDy9Pjy9t3l3CDd/uz56KDz8/DzcPcQ0PPw9fX18sTO+WbP4uuIsPSX7O737+VA+PbI0OT894DQ6eD4ZKYwUGD19OL67++7l5QBAAB3BklEQVR42u299aPiSrf32UC4JFjjsN318Suvu8077u7uPhChvc+Z+bcHT7mlqlKB1C/3nn72ZkPlw6q1vkvqw4dynfS6rp9Vq9Xzym7drv7jvV6/KjemXIVd3fr7eWW4oK1h5bV6Vi+3qVwFM9Xv5xcLoXXxWq13yw0rVxHW1dnrcCG3Lm/PSg+lXI5z/X65UFuXty/l9pXLVe9amevdej0rfZNyubfqrwsNq6S7XI6ts4uFrnVe6iblOkaw1+us3NFyObFe9IK9WqXdLpcLokiFwWjgtxteGEbzw4rCMGw12n6P6ZOU21qu3FeVhmetOQCRxlcSDtpT8u9Wyn0tV94mmyz3BW0vmYutsNUMSrTL5dqqk/KOk3E8l1sxinfpkJQrZ2GE4IaMk7nSWj7mE0ZuxZ3L1/cy1V8uhpvdXM6V10P6MrfWPkL3HPCCSl2mXNv1jjrYd4k62HMPqAa0l5CEz53KdflUy4V7I+NonmW1wWy7Nfv5WiaLyoWua5iJt2Sebfmw/bQDd7dU1MuFQQFlIHv/3nyuFW1LcL9s/tSnzyXb5TqsW8hkR5nJno/xIkDzmsU2EP65Sh/9/L7/s9Xy4Z70ugIZvJ9rWAmhfdI4ZdsagXDzBr58KgtYyvXhA6CZLby5ljUmtd4YxmybS91Xt3yzLtCUy2mjrYns+bxPStmbNdxbV3uOsF26JCe8gGTNeK5thU2S4b42jfbnOcL2sDTbp7vSoqjJXOeKvBvc4z6zhvY83v7J9/IJn+oC5OBwrnkld7jW3LWF9vyX7UlRPuJTXXVDRpsGtzGnZPPq33CdpiyVOs31N/7xf3eArjU3sZI31CkxpJQMQYVks34t8+2nu/7b+bxhzh/ZR5QTK8UdW10bLC//UqYkT3X90z9bPf/Wgbhobmp1bBR3bOX5L3M0kCy7fE5w/T0oc3gzN7fiiflgclu9+AP8s1sHqHzQJ7f+V8ikBvHc5ELyk5f62d6mnj6BZ8+2lqR80ie3/ocdAPfrXsaJWbJXHndgmu0LzCP5XKJ9kut/A7ALTYO99nw+GmZ7W8D4vUT75Nc/m9tefbNs74phfqZ/8FOJ9imuvzG3v+7Nsr2V/z4lZRh50qv7Pzd9fxxZZvs5MMn2LrH6uRT/TnjVdzXaD7FltmOjbO8af3+UKZuTBTsdWvlg227HPYNsXw0htn+UpX8n5oqAXTX6mg+Ea10/GsxL7odO/ABk7XIeyamsF3i0X2N+VGzvv7afV6dRWEaRJ7VukXIO+2gjbGuuldr7Wp++7PwRzd+dl80lmpe3Zamsa84INhrem+fNtt57+LqHpqHvBl6+fmGhp6JcmZ57bmEkzvbw2uRnvDB25A1LJ96ddY3dUxPE81xW1DMoAZ6b6qI/R3oqSradtdnK87M169uvmj/oWRop62xoP8eamEu23SS7rd5VE7VGvt9stEJ1dyZ+At6Kbun56tWA0T7Maf7+eT+balgGk04smOwbriuyul6MYtTDB+D+ppaiT+OB70a7+dtlpTT6Ovt00Le1Rfi5g7tsl3dhQcfpE3+0XyegfQFi5CqmoOmpWG+wVsrA/LLr8+HwXf/+7RKd8Sfbdz6Ui+p/QnOG+ZZ21xUTEAz3DWEu1KglTzdY4+o8IruK2V8P3+9P5bxMR8QRMAf5kY9hvP/ZO7YnAd5942WRAF1H5BZtT1uWLol7jrYA2fPB4acxs02/2jeYySkuSZDLnTdK6wJtc9gNpyrHnOS8qpJkA9NJOujFecwL2W+epcq3C+OSXMFzYIHqq4uSrlzdEdDPFnKKU6uNmu3mgr16MjHl2KRKolVxwSdB7MqvNBcKlEvZHXkS0+rC9DceeRceYH5JRxzuSUEuvN6i/RV+85+NJJzKJbHASyFZDkM4SEXqCeUOkNZioRPuuCCX4ZGs9v77XwKW2+oOhYbDb/tfHiNcB4mJZrYfejOfCrfonTidYkSS10Tn7HvpkbigW/EcbW+X+f6Im22giCpCffBwPKX43M/SLonLl3NcwLI2KJKUd4rkG9zzhrGO0QpuwNteTCJc1E6ncSetCVktiSVdEpcv56iSNjAsW+ZzXeci7giQGWyv//vv/ld/9z8kCYZt8jTupFMjwS00DGJcCLO98+o+w++9lP8cMdrUvoPoEeDRn//lP9z84+8JqfkpNZWzJKmCPYHqwigohNneVSp8ITjbJWS5G21PqKHrv/+HuAC48rfD1ExtSv4IycVOgMMtcHlwpxgiyQU2UrAcKuiK0e4JkQ24k/DE9w5Ee5tcx91TMdw9M+1eRvQ/KNdeou2IPPIsRPbfoc6ffEyAKHJAE1pwuLm3UXrFSElW8AHe30q0845+WLcePNI5RKh/6ohcfOM9oGx/5FVN1cxeBaJp7bTtr+W1C06sd67wB1nmJ49p0RcLekEg8EudJzSBE4p6205jco5+9FL8yz32Wa+pwA1KeIM7lW3J2yLZtdyRqakkRuKWH0jK5rbELL/Qhw4X1FdAmttKY1v2Qr0+88fbhfBI0LxN9KlMtDug/NX4feWUQu6+Ctqr4+BJgu1lITQSNG/ztXS183sUC2pHwdbsTERaFO6V0J4nj0gwyVK4g2KUbb+DZjsuwDlztAvo9Y14BjmgB4bhgwra2E2oLLbbxmaSmIhdNnmb6Ft5B3zeSiw1w/IsOiItelNCG5kTz2LbMzZKSu96OaTbk2/luIbcI/r1WpKAfaDUZJO+BT0VtNHvxKOARjIsgrX4FH355H7ZyxGvd3YQ+SYzizhCCkREO8Q6grFkWnfl9gG/05w+FWXIxJGuS2au+1kmF76G++8DcN8pXjrWof3YrBDK9ofDVVAFqOc6DX0kZrsjHwXdi0NVtsxYbniO2jPX2Xa8aeWqJNslfaTG9hQC8ck4y3awLZSSGcoK+vQ9brON6x3iacHZsEzW5H50EvyNRLDLnQCh9Ohh6HZ22reiGEMbPgAVZ5VS9strDVn+CFDl8WZ1UHzIjSNd39f6JoZ5LQPIvGN5sj8CNNsGFq6zAdimWe1RYdBeuXrVs1Lzy3FVWfmaG8oEHWNs86rGgSmD5TUa5WKvCiNfA3jaEzuX13i8pGdjUUrF5RJbKb1T3/fh2e53IqNJ9K5NPvOf0JOerRLtcsm62ng1NmC0byzeOhb+x0IDNEtJrVyCrjY+hqRj32hv119uMz+rQ8Sjo10OGisXc73ihagtvDr6Zm59xb8nlkqVaJdLcF0QbpvBLzYILXP9l+n8yk6JdrlUVpd0TRh2scHEus3+tw8IByXa5dISRaZjcSKJWlb96z+gnBgl2uVSjSIP+fa0yC6wT/b83yrRLpdutAPMHxnngHaDi3ZZKVou1jrD0W5j/kicA9pLCtpembIpl1gYOVxQJjgtObNJDK+Qkv8vE+3lEly73usLrFJ6lqs/AqDdKNHOtq7r23VyVYj1VX3U8LyODf2b5iZqM9FuFqioNWegq9VKBU1bVCrn1ZfTMgppV/sMbWfJQx+ho+2XaPOtVfX1kn1j58Vr9WSM+Dnm2mLJSTfQPvzzZYkwKXZ6ub1cCK7L25dTwPsSa29p5pivgRhukCvIy3HVuA/yXllIrsv3o+/owOWQvdn8i8gltMuMDZXr24uF0rq4Peq+5DrB/dgqyH8Rz3NGG+prG5QZG6If8n65yLAu34/XMzkj3auUDO76/0dONhtA2ycLJGVrZGqYzheZ1/mx7meVpvT9n3O30A5KgQQzSxcLLatynOdghTYk4S/dQjsuo0jEE6kOF9rWxdlRo33wRsa+fxfP526hnTb93pZYi4C9auWeNfar6fvBycGN5SJ3w27+b+Ygs3Cw2bFWaMIhr5HQbpZNv6AbyQB72mwsQ3JX9aA9ZcD9cqxo+8h8VmqSPR7XgA2ZtMTpDltt36/VfL/dYqXwfQLaQDViOZbpheZjB81ByH8ITZoBr1wfJ9pN5OCnpCK9CWPGA3PBo+WDdiiD9rLMRR5kbEp2ZjIQ9iLj1oT8GrdHZDe6aH5kxL7W4I6wH2JN72P8WTyLo90uXe3dA7slMtn0EjmvL/KapNc5orHJdRRtn4m2p3ZFJOxR8K73IKAN/PZpq9p1ki8ybSUqMU3S6hFe7LV7mmiPlNEOib8ZCqLtFeNG1FxMdhY1K2wfr+HWgbaQQ5IQ0W4w0a4R5saesj9yjZvsoJNRo0o6wbF63HJot6AJmDX+hZLpepRHe4Hna07ZH3nHtq+nozYzwuG+vD4qtEciaEebmzmC8c6RiJaz0UDQz4vWbNeamwRCTcwhWeDB6+n6I91XI2Bv4X46RqcE1bWbbA86ao3aqjsahwlyDHLCyEWj4cVwEHmyBa2YM5LZFYHcEkz5OoKNvgRQTrxG+7fSd5oqWgqv3fQ44t/W4e5EwNzYU7346AxNP95pzgPHN2hBYOH3LNX/f3ejchO1geWj9umpMPfq2XKzJwYasu8Rr+Sy6MFklVpT4AzawDrRMQ1oVXbHyL4nj8fF9kuR0D7NILKLkD0xVpaJGO6LYgsl3SKhfZKtY91LGyZ753HDtSXDYrN9WRy0L0qyFw9mxx5F/SNi+5YGUugc2mcl2Y/GO1a942H7qjBoX5Rk9y1sfxwcTSx5WRS0z06ebDszj2CHu8hsn7mLduQBZZfDU1f9AltPZFtOcQRt1uClNuOkIYZ2vGqO9JT8vrC9qiAZeUJow7t8feJk22vFhtk+P4b98+jXbZCOrEBBhxrzxVmo0efQq3mC9axQDrJnc8hA9HYUnuAQUkxF0PbUw5o+4WphdA2gIcjeyXZFQtm0j5aHeUF2u6Dn5XV64kViaCdPyvkDUFl6pJ4JhxIgpHfstMi+HuZINuyTXBQzlDyDp0e2+Gj/BnQA5bryekJx6hh6nCc67K8LVrH27A9ghNguZllaFR4dH3OvRIjI17oLyUrQr86oP7ep5t6XbZ7oHTav+USQwHMG7dB7EbcQHfr3yHM1QuLd12LqCPSrPusn07lUy5PsQ3jPm2wkd3NdaLShg6gvyGegjvZC9pdOCO1rFzIMz2Dmpsho74f+zVsjv+lp5jPDr8YniDbkaOd078raMSx2R9mFiH9gxGpPBX/rBNG+tVw3Qltgc0LxevcWsmgn6r42HIE2S7QpC0wQf8yRbDBhVsCEuzTa85qyQjK/USn2OTm0QXfkIcoTbeicLdwAh4o02qAHtkiUd6on/TungnbVhSI1pDCiiImbCj6GTELwlK0i6cs/tJND+9pSt5j0w64WFW1xrSMVPOVDnL503H9yaAPzsyfz3Bdw0A67R4/2oa1/rNKgtDEDTfEsROvEspFgVVScP9rgSPWC2ZZbpX1c12urTXVe34Qj5UDOTgztC4fckY1LEhRVAERqSNxb/mndYlN1yh1Zr/tFQUvmX9gTgfNfp9VB1h2qqiOrSaP+qGVCK+wV1Nu+Vsu+2CvSOa27UAGjfadShGqisNsrqredvu/IRbTHJ9VABhjtQO5x7HPibwaewU1BT86KA3U46NHaaCzx3OfLaRltuRgyLX94NioAnhVzN/eX0iQD3x8nuZHtBcDJ6p3UXaiA0f69nNG+M5qanxSzuPUajVt2GZm8bHgI1QX1Tmq29plqKSuo0BlwSbyC9iRcwGb7sEs5lS80wYd7f1rDoy6kK2xIdT33JkWSQk0lAYqDn+f8q6ytiX0zqJlyeAL+yIty/wFUjWkgidkqZiB5BXfhjZS6DAyIfU2oO+8U9JHXheLeI7cw62+ABxyes2Lu6JptP18xMO3ybTwHhW7yyGJj5OSRCL2RWn//wl0xYx6wqSN4nuVbK5zOZvjfj+yyNwmtSlLT7mCzSPvmDtNiKVXQ2MTfH/6/Qa5RJDxb+xTqRy5UE5H4XdRSZj9JpLz5QnkkV0MiT7nEkbWTvXqsrhoHjkk7JhyHrucZCQwm7RRUhSXP2K7lQHZEfCenEEMCZ+dE1VdQYLsv6MEkRS1TOyfuTg4ZySXpfZyfAtnAyFw55e+G5EyKvop419OkqEdohYRUDhXcs5Ml+0WxTg3IavWSniTb9+Le56CoZ2iXxPbMPtr+qZINHJxSMQ44EtpD7ljisv0sNoER8Xsui7u10vOdTOQiD55dxoC8Xq8Xo+zhQs0fAQY83czRAV2cVwK/CPxq/aC4hWpnQz3Odtj0242231aRxUP0HVSypWquL4tygl6r+SP36MwST5xtKNMDzEqKPKCoOF3tApcXX50rK0jEpK/CbyM61mvGiOW9OD7Nu5I/EgPuyBiHnV0q9ZGcm48fyJcNecr5s6v3auW2Ws8ZbthytxXQDhYZilCmwNjb87OMB1/3vEDJTKWOkGhCGKHWF8xL9skjvPdeClaIkii28tX3H+0i52TPS7VSyQJnmGWqV6Lz4hroPlHnS1CUvECQzmfiv67KtyOBkqpngv/dombTZJTt7qs+91JrRCPvL8dZ0PY0przgm3Jdd0nqKrE7SOcbhfhVrVTCTfSkB0US0B2jpoKhuL506873c9R/U6ta70n/blPf5SkHsj8VIqqvKiiuIJ1w2xjMNumaYHC8MOC0gJcz+XRlWziO7KLSRN5sv2TJtccP6lew6OtTOpD9a/K9CFH9q3yeLAmIHgWBbUIw+Ui85hC6dmxG9zWFQ5dLXMzN18Z0MzVsrGa91Ba10UBeOUyz7Be6yP5lPv9ZhEByKC39QRiOOXWu/YiuRAHxYp95hU4k7S7uz6LPX8Llr24kfF6zeCTqq60tl7t3qb4cjI3b9WpX8q72R3brAdJ4A2t5z2RxBJJexwzx61LuU/3c/PaXTy7k6c/yqf4LdCUFqgDZO2Pj9uypF2m9tc+7mBZh+8njujIeTzT0JfWrc+ApALFBrgJ3N5ex/J6uusn6AtrTAqBdlb1Bpb+gO9qENDrklECuTIesmfTZtWtdCaP9y+H3v+jxNnV5JG17aDc1SXX7u2C+gtGP22i/SpqSvkhHTTxBuoFD/JcfyaacPDpwIFfXuk2wfgde6hcHEmhnqm16eroQsvkju+kTP6DA/tZptC/lBvjfi+Ubo0dSW9kzMYSETDllKGYo94AqkDuyWd/yV0m6OdzIqWvWxc4d+bZ/PF8LoJDIxTaQU8yczYr2lq2iSdA6P8Xivru8+kdQfGIH2itVu5kyrJ4mfeQSkS2/ud8aciU1CXosMXPEe0IN90diFhI8B55i7rkqjvY3+CV+5C8Avli/UCXUlK85gxztQ12K09nIusz8fsjP5ubF4t6Cuvq8tDs1pfaqinbiwORA1ckBGkTtSw1vPN3RrwWIIt8lBBI5slem9o1G9iR1tGticx7kav+IcfGveuoo9MhRQvmxKMyoEgJFf+8ajPbh3USf8t9Lic3m7WIEp9CFNv2eTDbgd4Dh5h9E2vuE0N7KPp/hl/iSv6WRmtIVredmBWOiCYnHq7ilxw1GO5rGE10g+/m1CNVR56LeH6RjCIf4qArIcrSZUakc2mekophIV82yFqmVq/8dNjxoDkIguk7CQbMmNqoLmICUSdSuI9Ys+VSEmlbRyzsRRoXFq2gs6mgHzMofX07D2pqZ7/BrfMu/fr4uvoXozDl/s5B/DEVf4jq7/UuN9udCdCIIoo3kF2Vk2ecHFO19AgdukWRfFyKZaX9Z4Mr2TiPJV7ASn2P+1xYCi53WrOm5aKyLfI2+FqMR4UJI1vayNK4SosmbGItLOb7nSLKIZPuV/QSd+l8dQFv89gkRstmDLjxNtx+cwUfgl4KMnRfapD613EnVcC/uEjg5+ch5iYYk2nVEiHUFbdBsR4Iml7FYyQjgTMxWO/MKFFGm9d/ODxcQQBsJIAOVQnrccD91koeF+A1Psmjv/MNPiWtov4seVHciaLfEPO1sOdgh2Di7LxB2f1QDH+3wITPZ61fpMR8RV0qURvsKLudxxdcWv58zCfhksww/II9kM9p1MF3zZZ8B6hYH7bZYoD5RzRBHHcYj4ou80mjvS9VipxQSOG0zVs7mCjyMsaZ0ze4N/wIWUBbhfqcrTp4dreDLclt1fEN7RAK3hMyk0d6Zx89Iai73QcZgPzLHTiybLLCbnmBndsYq9ddDjiD67Mp4ACmdtSHgjGS9zcN7ICcnBXpZfWm09+YR0azyb+d7X2BXAdPPumV7StqyadvjGJkbbZdDXuwLA5afCkQ2G20s3dKZZ1xkr+QfRUbQRmp6dnUPDlwaciF50WboNZrbbE2w+j/thidQ5HCvzWh/2El/0a+HFyzElFYW2miSPNBxB3tCKpkKOpEJtM+gvM0vztQ9vMgdWErb/KSru2Y37fTzz0+L4kSQHLQ7C00BJGqDiGUld4kg2jI2qAL0kS0d0qwqJi8j3CxIr728rWtBZLeDBRkETUUbq2t609fO5xFD/5tQCO2K/Kdb523iTw7VPVwvRFUSxYUV7gxvr/SgPSzMLXA0tDGfWO/t6/dEzbbHCI3UqiEO6fafbs3Nvc04blumze+wcXUNaFcKdD8wEW3MZD/oHpwRdYhwB3exVrR32ubnz45dGNK9EGiaU1dZKWqhGpfAETN8//ChgGjfMOpQ3wzMFqDAvZiQTbdi4TF8JcHQBZvTrb+/XmjI74pWaWa+ufow8+C1WFe644n2555ZZ4QLN8l0h4pPB5rXmr8cW6/CVJtgO2Yl6C8VtuB6mMmhcQZtbICINmVEAu5FrZPoQRtMa+csx169V2jA6WQ7ZJeeqISB3dtK5bx4t16jaH9E92I8N7miDq1QYtIC6W6pqrSpV/uaq2hVr7CA08e2xy2pqn44kVWBb1j5QmuIMbc8ahUQIAc2lC/8fdkep5f5TrJ85fCmi+2OQCHs+amhvUCqkLYm28psupBaN3UQxlRu/Ng7Aq+rnEW+vsjLkA+cDg0QGTrQ2fYIByfKNoL2SNhkJ8ozMsKw1VjVQYB2KqHU3R8qmlXy7M6sW6FesOzBOqLZ9qkFhLcngfYt3A3QFDDZidfek1ZrDuRO0uQO6IuaAjM2olaP1UWirdYnh3W+EFv9jEckMomuz6jcOTsFtJEROw2uMOKh3kNPomoK6xypAYVRpOrkXSIp0tOa7RrZP/9zgQvb1JyRDdmrk3XZaMx8H+uzvD4BtM9gA9ngzG4gqnXihvuOXfWXdGpktMPinqXVhfgKPOWoHWvJ8dkaYPf40UaKSDho/0ZhGAa4iK0ID+BXY9mGO7Ybg7VT3tJ39WFu+yuxattxOu0GsMJ03YP/PiKO3uGu1+NHO+0ge4C3h9jQpDAMA1pknQ8eNhNhLk/QvlHW/nJeXTj5GCycWe/Hzzbto7N7bxWt9oD8ArHYV8j9CYpsd+QtHuWL8z8/LZfkUgLtgeKkBdpIE9oLRHQfsWC7O4QnE83yRXvgnZS6XZFAO05d4OXa6Wu1a3IKyUpgWTnPm7gxWc5q1FnT1IdTMIHkDMk3LvNFO4aylfVjR7sqgfa2QgEqO02yZIh3acjOXBjtghVAvKJO12OeZD/Cb6By7Gi/yKA9TwYtrYWAYdsfeXNxtF+KtbkX6DCA6Dc5kr22SNHD6ZjtihTalhb18RSrGD6N0YPUqWs12r5vWSqZ+isXcleOfzJmu74oEtpFiyJZIlK8qaVpK2jSotr4aCV7r2KihDp757jN9muh0L44IrRhTWgdlQ8am6y4T0iM89bmt5rrFI63eqFYsHPyqEWSLpRQGDVGjqF9FwJCSvFqHwSHstIxDDlL5WXvCpslUFWn3mIoKRM6gXYD6Ym6LWoY6c2dWbpu3CuMP/KG5BvzRDtGyqPSEpLLom7vjTtoa7sntSjZstghtEME7aioR+jZwo1TkLa9R1zcmo5Pqc2l0I5Cm2gDHRLFCuqBWRFth8z25AT6bdJ8zUwC7eQu2LScq3t7K9WL1Z6DOiTFLWq9JSjb+a/7E/BI0iz7UhztTsYJJckjt/UyQN6W8hiSvNeVkx5JVNgcmIpRidHaPmozE9CoFKh0PAHTjTzet6c3L3oDWRpIDhwy283j75LE7vqNEd8bX89owY062XRLtit+TadzFBbtF85lQfks7/izNvg11o+80QG9jNMzbuj9NeBqjRY1YJx8UNi6ByfRToo8IUAS7RpiL8cCadrNLVjqkrXUV8MvKtpXTqI9nx69s10htDd6sxFDvfAylpoM1L4aflELpM7cRHtW1DLhTGizF9oeKRtIIr8fyKK9KOoOu5RqBy1UtUSbgnaYDe2FLNoF8w3rKtNarDrbryXaczR5ovbAsqJdKarRrs2dWkeftKlIb3yY0dc+LbTfbc0pl16Fng+qJv5JJLI2CUl1J2/bGi9rZAqF9vVQPSixVv13VaKNJbLASapzxa9G65jR7gIzXt7cIjvDLP7CpYHnSh7Jg3yXx52SwFLIqOd84azRBk7PI0W7qqB0jBeZSn7A28MJE0h436cCaVXvC2c9bXBHz0q0CfVRXjZ7AU03Pzq0wVkBvchdtI9U2H4h16UtGy3WAbq7WfJGUakNewKmbPUWYlIOszDJs6vhwsmC1lNBu05qAnl+4N7QFC8bobr3GLVGwWJ6x3iB7SD09JLhAnbZXLrsjpwA2mld2hQrYOrnt+/7wtdDzWytcCoseDXTx3mJtv2VThOIsKrT/DLDTaTJJilc7gx0tIOkRDtX9W+J6Wz5tYWg1XKFq5yHLkMI5yXauQpUbYyrZl7bnhrp36CudkGUqqrW+yDNon2sY3au8dFdBPc7t21vIKgXJCt8tXA3DYlpTkc703KIidTT3Mf+DZD31ClauxOQhpxEbqI9O360z7E+xWbuTmITLpmNijbyr7twtEqbWPl3tCMtXzCncKBe+6Rp1eBzY1y0OV7v8pUE+UXqww9Hu9JY/ilBPN2cZnlFsLcPTIcoiPR3qV7zay1zcApXIwDB/McIJiunxpAl9N0C55YURB9xXPeD97h6vGgDExd3bNcW1EvvLEc4K4/oOSjcnQh19402UK798uEkzPai50FR3DLnCOfnErqw66xoaA8KgPYx32cDXyMe+P4EHd+aV4RT0OtQ6zmbhtJqk0QS9E62fN1AZF1/KK22/tTBUd+wB5ttaOXhbFPvMb/sFg3tXuQq2uHi2LtsNmRf0u9sy2Pi0ZT6bopS9ge0EbnKNtB9PTzea8jOGdcR5qBsJ4y3U5C6P8BW9FyV/5oncHvkGeumzRxuqfBY76cYh+c7NGe5lTjukRzrJBKohQ9fcZ7mhHCRdSGeQhfZ01pzdZ90Xp5HSLn9921x7Hc1VdgXJI+VtnMzf773nNEJLK4AWCVfNj1qDEKriCfjffptOlsibn/0cOTj40F35C8Oib+/ky3X/nH3y886/JHgLv4I/GcRZNirKvs+9ebqInULXkpyh8wy9yC6gdqco0T7ApqVsZytb7Fvh1Emj2TJv86DvtJZdON40Gh4678f/UWRku3114XQmo4aLYOEo2Bv6QaTSP/gqNEGjPZTTHR4FTySRoZeBvKXytUSqfpqIW722cVCbm0I164RRp0nijDQ3tEdvR231b6gSNheFo9kmUFf8cjizLOLZru7iVMqgCx8dT5cKC6/3VjG+sAOmN+mtheOwZ84bqP9RjOe8nFP1FOvw29SJPU398x2fYgkSV8qi6yrNlq54YbBxtcxXoxQQdsQuIiJ1blPVGf0APkauLQIGILpiEhShd/QVfVioWtlApzoY7PXEabar+iNTh7e6S7lk7DvYKeuFtUR6jiWYTiH0Hh5XWhfa8Cl93DZlP9Dx3jlxzud3yifOpIeNXwFen8dGJzRhVAeMg12bZoF8GlzICyjJJ2awl8YXh8h2mmtwx1DhLPYKhIyRMc7h6zMoaLskwA6q1ahOBw0Rr4634E/a/E8lKQ1If7uTctrNFnOd+XqqP2RhFU1bS/Zzvo+uTRnZ2+zv8W/8rkEmAyXjZk/zeChUITwZDmjvOrN7q/HY4ZBv3w/NrrPmIa5xjDp5ov+CHMiJs6EPXs/+9eI1jdxF9cY4n4SthpNZSM+XemEqzBztwaNtk+1yVCtQ3zHsN2X1aNyS86ZA0c69hsS2H+y5UoV5j5E+UHpduu1InTgBKVyyctAOH/1sChp2WbQPXw9OxrjfcG8QyjROCcmEgqEgEixzXxD+WZt6iDZc8zbvlnCUQNXPF3Z8DcrYG9t92C0OHrjfcXJODal9L9w5s8okc796nAO/sh/DY+TJ6o5Mcur+y+CZM+/w/HeOEGPGJH+yIYtsHf1gKyo8uK2+HS/cAxLKKH/7QoSiP1SfdGrAXocUaad/4CB6/d9luvX3ZuC7odNS+vaUtncFO2f4aCd3Ue54f1Rb7Jg0l1wz6TKI7e3EC7hG9P7pe5F3RqP91Vq5TzxqH6bunDfIlT/XxXfAu/VlwpU/gr56SQL4MGdiPvHDCpXnslZkTsmX3mGxRM22wnVYHg94ckPPV5JVphnHNmFEumfYkQjvYFroedy5WU+UU5Jlo2mtFI48YSDfo+duTwv7vAd/iXWwmYbugG4Nt7VaCYeHJALG22afc+vjKRbhUv6vuzf0i+b//yXEup3faSO9m5vvZkvWu40kezDpKV59o7Je0FNN9+wtERFkhCv0fSxFEFN1GhTo9ZaXoNz35Fa1V8Pb+k7+dhD73XgrClvj6JwzPVDmkr9xRy6z68LjbYvoMaxRZJYxKTciWraHb5xs2uy0WLVTwmcs/2EvdOBXAUO/1HQZ2qtvxD+zMuQMk5aTD2weHWBVwKT/Wai/b8TAbQTQU2b/i1q55Jqv8baC74e3tFnUAckvtNQE9rQ+NpVFtJrbNYqK6mjBy1atumJ+GG1YIJJXeDMbIiSGfO9QbZLAxQZzwTejsUI5wwj+zvqd4RSzjMLbXp+p2Z8ZjfLeJ9fHRvaYAj9yN6Xj4ssUx9CoYlVeaBNmED0BfG0vzNYFRJIBDzz2MrUo4gumhQJbpFRuZC2ei9cAIKvB87cBtCh8QVElHqOZKck/4Kijle7jzShnUaRhm/zjLwbyjO8LYxcciZwwkH+11Oi2rkUdCKJr0VNAIF6fmSnnvYusvusxCr5xwf8J2G+M4TW0XBRFKG7KoA2/NEe1dryuGCj2qHAz1XzI/uQXow/UbevxaypZJxGIV+CslKGGbaLbLgF0E6kIkGis3YYe8H6pZ6glGIb7WvYqfq/IE17T/YvzKBAKObj//hYzsPR4Zi0eiQl8OpI0MYyMUKTzsLWZgaV74u2rT7S21JyRRue9PkYfQY96z3Z39jhd6IH7ZrcMWDOdBeikVIA7RbmW5joJesTmgldQBseqT/eu2cRRPanRDZxzkQ7dsMfSb3uoIiTHQTQxsuIDbCNZ5AbbqANjdT39n99GzR+QcukKDGK2GVATd43wZo+IlL+enYMaBMk/Iluq0GYFD9yAu13hOz514M+Ev3AJW7Z7KKUkbepj+C7flM0tgXQJmlAHyOz3ghL/bOJNpRe3wD1636z4m8cskOBzKoM2nn5I4fPg1jul+KjTRSAtLLdJ/4JPtrmDQfoaPeBepFoZ73X3kiorlOT0Q6c80d26/6pSLFknYt2SGm70zdQ9I07uSOvlM0t8Hb+AH7Rw+8Ltp8N1f2J3Yla4/gv0zz9kd3BARluxy8t4yfaaRcm6Yol4bqT4A/cB3hvDe064ZhCduFblEHMk3LNk5z9ka0Zgg7YSkHQpikS1LtJg2ctHhwsLIV8D9VeeRTQLBYkxPzVVyHFI9KBtpe7P4JLWdVio81oPNVwMHbQV0y4uoI1tKuENBWE9vcwk+JBQ5usDbXzyNfwTnGX3e1rLtqsUr5+1vPtEf+uBLy6zYalVoQrYjEuMEznl0jMd65Jot3gfFNyvoHSK8rkYl6BNPuaO6pQEoWUBT6X5wfYwwlhGT3hHfRmd6ZC1PEPYvbnOJuDQY+OG+yXq81zXv2CuCScBxBxmgsevmw6mEabcpFMI6RXt41sXuqRF9ha6o18WRCn1EZbOfv7F3Er3NSLtp832uC9Ky7fTsvZsf4iv9XgoG22o/2CUusY/fz8+dcv2VEtMNpgkabDV7tXmK5tJ0eyaal2O9oTkGHvKYlt6mgPXEcbml1w5T7aC85H2Ozq762ynSPa4AXrah22S0khKeT8PZfQBk2eu2b7nKW+QsmnGw8cpmBjxezUhclNBYS/N7WnL5uxaRUJbdAlcdZss4pIQJkn8OhJd1Prb+dWHQUY7afEDtqNIqEN3k576yra7wxBooeWjNzbRbvNPujfrRht1Yn5DUkdulhoz9Ma16GraDPSkSGWZ7ZstWt5JSMBo91TLdgYSSYjC4Z26H7ldp1es9HGI6kHu2xHzJoWc1neMw3FBL4y2rE1tKPNZWj++l5KL1I221puwO7WV0uz207fshqeZ35mcOjv1qzBX20/XYz73pY5ZWwuROcui6AdyKI9t4B2vETvhpKtUgYCsa4+D7Ci84Y/agcfsYryubcfC7pqVV+t5Tp5rs+IhOESbFQiFf9Nzft4LzoqwGqSKLYtob26a4E8il62SjnQ6JG8Ghm+RhW2l+RwLg5Do/XCoK40zUfWftVgtKVR9C2gvbp4LJCM2ulrrM8jeTEzw+eVFsk3curq8JjOdqLXxSO6fQITI4qIdnjDjmwkR2TG+jSSczMzfKjCtqwwq231WM62BVn7TGDItwTaTUfQ5hdNSHokNW0B/YWZGT7vNBMlK8xqWy2Ws90yrzml51iWy7slS0iMoy2Qk5A0YTNdVmbbNPD9649vetmmCtu5We2I5Wybl7W7ymYsS3WUONpttU2lONnBWg5Qe85LXWHP9phc3yoR/dz3U19q8LevaJV2uaENzqqP6JmQrnF/JEvRvzravp5TgBHB7Jhur/Qt6LVDVRM01OETbwuFo180hlI0E7mUnKNhxCPxqNqfMVn7nNA2Vny0wfF20/YAUrkSRRM21eRsv0J//Yu+ET409S/MuJkZpFeGIGVe+xvq8EekB+yknJhBezf0/E9twtzcUPHzzjTFPRX4gN6xfWFO/VvmhjaQDahRFSdT2t+1nibEUNadW1ix2gHrlJR9zaWm6r8K8td/6tIJKOofcJ2YdbR9aiRnXvurZozXHEXbY9QutBW/yommIxRFezd97lJj2AQcnVGHU8phdM2oSZOBce2voudj/23H0E4YKntNdXRPoCfwwdAONTU5kGr/wh6vAM/oAmKeJg16Q9pfV9PHbjiC9noydm00iA8dUwmVevnU60hPq00F2+7Pegryu9imRn+AZCL7g7ga1AZJ43V/L5rui9GNtlpQn44K7f0jahqqpRw1N/RMJH7F9umLpnBqiMRNcS9T/lXDalO9ocB03d+tpvljTqBNnCKDme3JvkVwXREYrC28vFhezR7e/MQOkguN3iUaP2ZWdxXXlFrYalz7u9D0jXYBbfJ8pDeq6HQYliU6qDTW04K9PSl/BV/5u56T+Rx6mijZfftkJ9QustB0O/uVah2ci2j3hUpFxoQfeYwk33Ql+6Z/mmPOduZCEkj9iya5k43cs5cQlVRD2t+ZrghDHe2RLrRpLVFwuye5uORB7Myq6Ql9LjDX81c9UsELqP4hpY+dHMhGatRaRGAMCSTnuorU1dFuaEI76lGHK5L9ZYWeG00VPdsAB7wL/Kuehwypf9B3eBLnQHbyRJ+P1jbd83uhq5I3f7QPRuqtjbafggarl+XWC02m5hrbqR+a7Bfg5i2BD/eUh8nGr/0FBU/T2t+VtlG/uaN9cDTWNnqJNNjcr/rYg5o/GoRLavW2yJiKgR71b3cd1mfU186ONqD+AXnAx3xGlIesyxcOZ8qFaVe7XXS0947Gw5bQZ5E5GzctbxbITITTVfew2/efCNrZ65YB9c/PNX5cryarHdW09qfN1baH9mrsQmNJcB4myAehXfQGnNIeUmLB1wBjXYrVBSK46jqaAfVPdjCM9hWx2lFj09qfNlfbEtrJ3c7IBuOELKD2qOE51bn2JFwSXbZmF+/tL7uPddkvQP3z8yscofkjgCpkuu5Pn6ttEO0WRZK+J2bPwdMnbjXpZE8SXDThB1vaPMRdafW37bv4qct+pR4m8NnziSHBDhvcIzHd8yvqakdeg5eONod2SEs29gmyHNKTP6aSDd1KNCZ09K/8HsLwNG1xfXd3YG6vmP2m6yEDnb+DrBPT9Vm7r7gJNS1rC7raXsDP2FlAG0uj3+Mv1xZK4qw+DFkSP9i37T2/eCKnrW3M9vVezPh58KaudJ7DbbCgoJOHT5JmEIBYPcZCzKscXe2QiIN1tHELDBjZkPQVBZI4QXM91m5CK5p6Rl5xn6MOEjPCNnRkfg5/0dSKAAvboIIfjO2nbEKgORWr0DIsawu62hMRaFum0U7S1nQ/wNzwASliOmgfvT3xySNl5MoNbLY92mQWT6OLmLqDn/Q5ncO0qR3Ju9banmV5O/3bPzHSpmZlbUFXW0hhDk2jvevj/b0HEDZCJdQaMeYD/eo+2WyH8M43ad95rYH92RCaIKVlGgdY1oonXoPmwKLfnZYltDCPxLCsLehq54L2AH29ANLn7hDFdkqo8fKImt4buTz9BtKAqZqw3puFrsEJaXr0XRBtys0H03bLDt/pSd7GPBLDaF+KqdpCxYFSwxqicDDioI367jGsiybI+yb97TbxuxYTP0z8UQxtzY+kC0wj1hNO3YLPlDH2cLqy36b9kzSQ9ZeIRxKblbW7gqq20PQ90cR4FLaQ6iUxtEMkmwVTSxyaszsEJ8gr1/APs2wiKNPn/+gufXi50DL/gVyxzbvhN/BnRgEPUscf8UgMZ2xeBFVtXWivbyYgXAkhg7ZPQZs0NCeiNMbNYHsce22g+nMC4U/4yPoj+7MN3JWuCbTn3GqDrQVveEYIB7axCXskhtEWbYvMjHYUeo0m9UJ7GbQXCLcJ4laT3lFIfmV/TfXMJ5em0T+yCT22fl6p67dXSwguEcJXd9d4oUaRMK10+G3rz2EXwTObsbkUbIsMRNCOCKiuLjQZNEY+Z0fF0E7gLI0Ho0yaFRVSvOWdC/7bZkDP5NDRtnEhnKZ05JzUByqy/NXkz/XVNpEusvG2esPbKNoW6YugndLwmxXP63upRG9KbomlgGpQdd4N7EbvnIwp+DRoaDMM2SHhSke7pali2w7as0XGNd3e4TRYX+EkZc8Tj3onxdg42nXRtkifPv2bqM/LrYdIDO19tH+XpAZhgCuogd9stDYGhzK00qMXuXYERCErly9rQzs1L4+1hZ4V+Pyr90asa/Y2HknDaPtYVXQCiVjhr+pOxYKJ+7Rdd+pPUc1yRNhAnzzvjdpBeZeIiO6uo90F3/oSbN1KvNl04cQKwcdrYhMqokkWMbSVrEJtnHBrUmKqub0jJHgWrM4OugM4aUXExEzDWMW2qQW+9TZ2+qyk1/z5boPvzOge8LowxND2ZT+gP1tGIuVWeI5870AkhOQAZ3xU/EQ4OJqtRFzucRvtq1uQ5oDYQBTnjXZguDrqmjMIxCTaNX6ql3QZcIfaQ8oozIZ6HtGpMwSHhYe2jduXVZ2Rs0vQdADnXKAlLNK2lmZ38V04My6GdlMw5F5RLSIqEe+5hgbqwnUvrKv07vFmhj8wvf1Col1HbqME0yRtykeIVmm0trCWpbY8fFxdE3gLBsLIV+F6pqYQ2i2BnNdSXD+iXOF+kJRu0HedtJpUd78fId+Mm12vAYVtFtozo7G9siNSxe6i9CPayTTDQvRwTXjNBNgP4TzBvzoRcMZfvuu+gGwo3BXaEEKbPrxpOmrIVypQv0+rIpRVPoH8csk/oXl3bS9spULr0wrmqE9nO6Q0YLqas3l5JcUyNH8EcFQGph2Vu4jY7OTB7uur1hxB2oYwnWtBG5vlvM5pDZRTWgqjBqI7TPegnZGIWDKJxCt0dTYjmDLY2xBqgrW2YB+vTf7n5jxeJ5IbTT+TKa91EkokdINGZhdVfXULaRvCTBPaq+bgu02b1ipFm70eWB7tGBmqs57n8Ej2TzBKH8XRdkzYrr9SDeaCWkhBNms0Y77mfOWxbHMxmyXC9agF/FXM3SYc8RVdpvucpRDQ0LbYgCSNdgST3dsI1UQvqU94mB12HwRROrvNnevu2YWQ9UQ/w5S4uWp3Aqdpod+tvgF/To7ykyeR93lR1eJ1X4rzmss1yNJoQxLJxMM0EeLp7JENG/MTOyNsX90OFat0msSPPSIiEa3LR1q7DPqmliRh0EHbOU/QhznP7peItiEUB23glATVk2hMlQKhLZ8UDe2rc2GfN6F353k0W74uRG77tMxlbVOpk+B7NaM5QW+ibzZzfW9aRfObY0O7ibzLsEkoqsRzPZ7oJ3ZC2K5XaGIb/k83grp9Wl09E5W6/TagOzEfG11A0w23cG1U4dAO8KGUCXzDHNxRto80/2aB0KaBHbTDkKYHzYk1MiNSxb3igix/QP86GYa7ItiGUBy0B3QtGrUYYMwYPRIqsxus3ZkZ6LPRAvZkPcgNnx8eRAynqqbGHjF9wenIGsu8WAafeyFBTr5oiw7aBILwPivChIFNk5JNUbkz55wNxcfej4dqcCof6YYjK9o+ZPmbojm9uzuy86OqlojXRuWOti/6G0AQDs2qTOW63z2hLsn904LtazMrCnLos+lWiRzcePhbZz20GeF/HWREe8apUKB8dxqrfAixIedCzXKI10YVB22Q7V5MqPbrpfnHrUuSPBLLA8Fq4vncqZzNGUnuC+5i0ls/fGrm19Ob078UcqsBidykwcdEl2Rj3pMxyXTfqhjucxlai4I2yPaTh5d5PwP3BoWwyUbsvO8m2lckJ7vXipi1xUSZgGRds/ZRLrmoEF0Sf5/K7ukx3BfCtVFFQhu63naMttU8gg75Qwzd5PQWScSwaVWPXbLfhyxPZLdqXFEbVkNG6r0kBMenzVYnQmaqNCT4JdLWoyteG5UX2oEK2vMESD5u29M9uCfnnllUIom21ZxNl1As0gzpb44azsHbW2OiHWyae1thujxqV6+IrvVG+b3948MK3Bavkk6J6NyoHNFeKKENlqpuHG4PlQQJm/vkySmPh+d6aZHsa7xa5I5gkBMMzkRUW/Vhplcj01i68DpbOarBXWHA1lDmf5CuWobeIA73pZwMeMuQ84uNNqT0PXl9LEyMsHQd4R5cNtp55Gzw+PEuETvyPxJdzr/Cn+mBuiegHD5srW7cbA5odUbREn5O3Kd2v+ApOAlarTmUavmQSdgUDe35MynYTh8wWhffkc4XjeyjfYZ+Htolpy2+t0WrIkF2PAkHQNvSGyUmCyHtL+H5QcA9BPQHEPYysL3gnBuFRhvriVjAc3zGHJPNzRfZz9mgZE+oD2LGag1lSyTpjscrXwO1Dw8x56vUmgvNNA2Jejh68j6psi08N6qYaKfJc3KHWOql0K4uZ8sz1tFGyH7whOofF6yjmWBfOQIIeRZSG2KjJeDo3lHUP5ZXMhT2t6USNgVEG00OoE/lucd5bTbatlvIrmE/+y0SEZZoZxa2v1NBtLEuO+SrFAmSgkeSvJBpHUuK6iSvcqwWEG3I4f6Y0M5tNbQt52y6kDbywLxtOyFT+RH/Sag4O8SnMRNWh/WYAjgKSYTifNbPhlC8L9rRdCFXVVdEtOfxlGXlGuzPH7iENqRnsy/vJNT90ULJtIh9JpqrIZQQxnDqR6xcs0dIY5LMO9QgJVavI9HM7gDaTcUXaDNszQEBte+V1XTkC635jf2oeDXbKhUjHsM3a5C9HE49BDPkBHMUi4uu3GbNCoB2I1umvsmM0+NsaFcsuyPcLMSIRuUT8knDNwW0JwxBZklJ35MWklCn/3BfNuUul7ApKtptFpwR+wNx0LaZjqzKkI2Egn+f2EWWYRhxRI8ik7n4VV2hSByJsi10rWZFcvhCMdFuMF11NiwctC2mI7tDcW8EncHahKoKNs96lYaRGvA3bQ9CoF7Po3+VYE+D05V4wxUn9yZoIme25RI2x4l2wHxxDtoW05HvQATJ/8wtJIMNkvFlKWWsV0UkXoy+apsdRQqDEgvU3e6OmCcZs30tG6EVGu0p0xOfKaFt9rYKipj1JHDENtFG9vhJwe2ojeCZigk1OvTgqK0pXL9xJ1KdiH5bzyQMwcBdtGNdaC+Y8ZafEW3T6chrtqrMTNiEJDWCR/XqDuCIHlugzjYcRUq0asP6eyAmFfKD9nNZUvNAOzSMdiML2i1raN+y+8BY4dnNui6vMcpINSGbTsz7JNC2cVu1n5+47ZsEqbArfsbNTx7t33LQns3zzdlciAZmmwU17v4i7loHdKqRr/KAlYuMRNNsEao8Mt2HmrBHItdhc6xoe8z/lfPHraF9vZBp9CMUjPKpHtFmlRM/b5P176FgviR84AvmwErrgc61dtgcK9phFrQT6dKGzCV/IhF/IjsT56CBCMf0U8opMYBdB5YVjkh97YlQ2HUhnAPwpNGeHx3aoZI8YysdeS71rJZy4aLEXpKHFgMiaChsAuOJWAqf6JF0dXbYFB5titcVFQJtiUnR0XL2WzGsV5caqt++EpIFmbmY9heHlOloTYG8Mj9qH0ombAqOts8+Y5cs7ql//KByDc2iLSo5hIORYLzYUvIpyUOLY8RPYWl/aJMwN4VPjGLf9Y1EO360G0p/3FKmXagbKm6JXWs4bXuJ3qfRQsJGyhcxHAhcMOwJ/fVbwcikcdJoT7Og3bSDNje5lnhtoZKQlQwSZXkaxKHFgKOwhM864Ic8wetEWR5JJOj/3fIqwFkPMg+0W2bQ9rOgbSnTzkyurZzrmpC6N9CgaxENMpKkJOzas/i8+EQkyToUjEyEv8d+rmirPpi2ENqjjGjX7USR6LOKhZzrlWsd63kcJAQShHe87k8my98R+utaIpPCo+2zI4qZUIcYBe17O2iTn5WYF6IPa9j3CLGs1z5Bgml/z1K5I4alnQltd106YVNwtBsK/goXbTvpSFIUGY6ntrGmSSRt5N+wnt+eDNossz0Q6pCsKviwx4x24DDaZ0gUmXgCfQT6sabtSA1BGc3rSBYdBiJ/vapvTsPxos0qIuGibSfTfgvuQSxgrs1gDX/gJs3VxrLxbcq7/Gur4a9Loduk5NS/CwVMi4k2RzsMs6BtJx0JNPpFj3yBzxTWRG5xVxsTCPEZEH77MP01EWkqltruK5XxHoVG2ysu2kDe+COn1XxgunANryJBXW1s03ykZiUhb7FIi6TIdsvOaYDfY1BAtEPOHwiV0J5a6GlPzdCI5bbWZtnSMbK5jZjiamORZhpWfmVFhum6E/hi6Sz7myvevZFxtbKinXB+PcmEto1MeyqQNJpU51o9ea6UAEs3DHO1sUvNGiwxrikVSIpst+ychtzQzlwjHvJ+3Xm0ATNEHF02GsT2nscSzfl7aGCZvseP2yToV1bxUyr1eNwJaaDzc6Wx7K/oaM8zod3iJhHM3fgLpNkxsaHWtuGFELekjdLWQh0UAc0aKBoEJre2+TTUNZb9zVVvTMoZ7aUg2i0lR99Gpj09YRHPtNlK5tYXqj/UUOdbKtWYlm1PgCH1Pj9nUxdNAqh9qkKg3eChzRiy4wbagDObvqE/zZbzXBZyAVOCesihVKqxJlf+J5CzuVUCpshoT1VSOny0lxJzX7ILJOK94uYWPCMed7XZ3WvIfCDK96CVAW2Fsr+ioj3jveVMaFvItNfBWLaWQ2qBFl2E8H+20AdGXI+UsBBaPWrjGT8dqVD2V1S0fV5M4TrakE47km5oNafGerDSHNPVPHCBd0VFVOPuqeZsVMr+TKEddVb3EXrG0W7wfqCthHZkvogE6kNoyDeQGJNIGtDnDzCHhbKA72RHupGMi/a7WuuKCbR3F+D1jaFdE0TbV0LbQqa9Avogy8z9dFkXXCKyxEI/bo3LQ9hqNG7Wt2LPA7FvAEmku9Q17Q951219ZO/fa98U2tzvcNtxtCHnMVZSbc2of1OSq42UO4m0tlG+AZFSiuxCLRjRbzHigHcC6UI75Lk8imgbLyLpwjCrRUmafMfV/WT+6LcgPJirDWseQRJ5PUW231TQlp/2ZwjtMOCeQFnRDg2jbTzTXod33c9NIknucJ8Bd7XhofWbCwC9B8EeBH+K/zKyeMP66yplfwIDZ2SXJ3AC6UI7KiraZ/CR385h7iIt5AtxVRu+QHt3b04kdBXUOEIu9+1F8ikypbI/HSNBWGQT7+vMjrbHtXHZ0G6LzqHLrv1t3sOAqKKZ90VILRADvIAEFkhC2qOmSyL37C5JHtqvauKoZrTvsU/XN4B2g+uZMtD2+H/ceKYdqdEM1U7crGQTWyDaeAEJJHoA7TLk4ZWAM3LY4D8ym9t5260YRepFuy8mZmZFm5uMZKHdcADtS/hhJbmk2skehR/jJda0xxkxyQbTj48ss91i97RfKe6OVrT7xI8YakcbuRA13C5B+AX+uGcabTTkD3JodaL4EwF+JVlIG035JprGAe8aw802J/v7onimaUQ76lM2K9GNdjrSbzXusQb06B0KQhmZeIE/bjrT3qU30dpDm6bfTTAD7VHad9n1gHDLWIdhtjnbXVVM1upDO6J2r36MqHSp1SbvfvmP4xqpmRA4KRtuol1HN31mXyIRCAIjbMfgHQXvPu2tL8yJwv4TbdJfjy7ec7a7okhL9smSZLI7E0YomXE6LO/ui9HgJ+NrLoB2bBjtM3TTB2ryli6jTdaoJ7juDO1oQqqPSj5Sylg9erKDU/o3VPTWQk32AomWPTAniZ1BGdEOhZNfkaI8c/iRVxvan34Jlr+ACuxJnLALrKfkHW0RY0vgDuIJxR6F1O2ucErb80A7DjBV5JmehKKhHd03/SDw2x674HwgSvZknhVtM0Ukr+gRm1ivIrmBwjp2GEjpSx+R0+eA4QH4uFuoov2i+rXXgzZM9q4wF9S4g5iPdpR+/KDDgrspinbLUbQr2Oe3XUUSwicqcQQK7i/AkhPFqcZ08RgdPiuH9q1iFAlYwAxowyHJAeM+LcFKRBu+cHASc7U/NX9ECG3D9VFDrNzHtkRyA20SUZ8eE3wXsDyUWq8IxMTxqvZK4LEw0VaNIrVcG0khG44sHzloe0L1j5sFXXQVtLeXE0VhCx112lb+xIaLSHAjyL/fy5Q8cjentD7Gc7ZAQo0PON1mhDlSzIuxlA80DWjDNTaguU0CskxCQDsWq39EPNPgDiYhHkyYuSI30L7GcxCWL6btwc5Em+WPQP7fPQntpZS/+JRIbfc1vyXeGNp9hoYdk1O0BLQnoi0ZgNEheuSr+uOtOxFkKBZvG0W7jtu7pdKgDQ3GaG1CI1JjzJM/9dtLVCBZHTSjxiBcX/pOi9IisZIpUbTPlHcmM9p9ZnbGI4YPONpeqvyHgx7i7BGioNm695LusiThZveVP7HZIpJ33N6FBpqd6CmIADbajG7GoEPrHqtNKcx12Dbbkzwkb5UBzYg2kqjpRyzyDxl3HO0JSHPUMykW5I92lfAObBZIvQkY7dTB/MKN1pu07w2+bohHMasXoaI0giQ72ijZhB95JNh0DO0Idq89k2KByCceGEX7lfC0avYKpEKkwlSop4BZvCpaMtXj+ojX+qLIbGgjKUiiBxH18NAQQztE1B2TYoHIJw7ZZZbaZW2b6h/4QDpzUom99OrQhS5QsFIpIlaPIoFXlR8OSkhB8n5qTKYrRJo6TYoFcmhXrcjaNgukxnCy4Tk72YungxGKnyieOTPDzEBbPYrMUs4hRjayeV6J9geSXz1QzbllcEfW5Q9xoAHtRW3H9nMgWtcsirZ6FJkBbY/SLISve1TSo6B9cEjivH3txCTaVyQ1xFaBFOiOrLJo0cNCy3rqrJ5dTPezJ5Ei2upRJHAQakpB8gTC9RcYoyuCM5ZjkwGVUHRhsvSvTqI4tqT+vcG5k48LU+txzK7ZB1eLjnaG4hrV8GVMbYPjCSmrD4nTtctgPUaAftR0AW0D9VEvxPItO+qfBwd/LA26hjoXUl+DlQWDvZO+kJNU1RdFqqLdF/9KbmB9gGQSnK79lgfjVbLlo9Gq/NzRrhLfgBX1D4zyJsyejqd7akOg0HrGBLR7FbQzRJFqaEeSZCORc59AFz4Sw9QjFkJ7ah1tG+pfNIGDnju60Y1xA0ZIwPyBLQfCaY9YAe0MUaTSjnJTkDzX/J/jbzjBYuv7PNE2WR9VIW65DfXvDd7ehEM2J5tzl5AsEuR9QKT0Inm0M0SRKmgLpCAJq8MZ5ICqUB/np4W2BfXvHqkxHvPIhvNtSHFJRGBht/5AZmUsj3aWFg15tOMHWiZKxj3H6Uo+SiihGdZSBO2RQbRJGRsb6l+Ibi9N0n44uA5hQMuYR2Q9AbPPENuJLNpZokh5tEUTNTxjT6ALGG370dwNc0Itc6lp71rJ2FhQ/6AH9zwnlcijoZMnUgoS9hgdOrCnSQsFqRMEskSR0mh7T4pkk9MDCF3L9jp+qzVNjiyQRFt7fVSXwrBh9Q8KIcewC0QJnWj1II9o5fJH1nNdLvifjCZIZYkiZdGWSdTwDL61nhK30K5TPA/Dw9EesTiG2A3Te2Z7kMTG1R7DJQFbXqXRzhJFSqLdyUI2yQy4inbLBtoDLckz+Uhn13b616nB4Zyn/MFlFR2GRtLhN6sy0M7U6C+1oYicLe8P3xcFbYNVre+Uv98WEIDX3UOhyv3tpG6nFiZTg5NyUFmvF9Ck2Zias0GrnpeSaGeKImXQlk/U8GUS99Gu2snYCIiSSWeXsZx46p8ZoBKKfYKmlzBj/mZINss0gXB9NCDm/FE2+ZspipRAG/m0b5ESWB9LtCnWmdf52/kTYELl9i0mTxbYy7jTtoccwISh8APUndybtkfQTwEB8SZUSVAQ7UxRZIp2TY7sviJYyHf8BNGuUIwJ+2oE1Izeq+45mAqLWiN/toxE4v31ZiHV2A9YMr7DatlhDU2ioJ0pikzR9qUSNX1lsuBtK9EWU/+SB0bTFo3o3TR9wWw3m+xNuiXuYXMXQLInc2rmneO/UtDOFEWKoq2cqOH4fePTQ/uSmIwE1b+aULqL/QyS7ezxCUKfiKhFbk8gvo/+G1r/lFA6yNj+K7kaLVsUKYh2hkQNJ1r3Tg5tqnFmhD2kbPYTQ6ACroP8+EdMt+CsFglNny8JdsgimMgZQ56Mli2KFENbvFdMXiaJS7Qx9Q99Y+QSvUcBsFWqKUlj0lL/n+pNPxJyQ2KdKrRqtGo2v1UE7YyJGny96X05VbQHeaB9RY0WG1T9l4Iq+cSL6FXYYhESEe20IYhSMnVw4nF/ZhzNldBWntEqjHZfONAVDtk/CneEmkS7kQfadeqfX1L/F0r9HWmYbdSht6g/im1QS6pEE7dQSFwmIlSS0Va96UMUbR2JGvzIDGxUZmtBu24pz86o/QPHPTXGUCselu5lzF4QfXTEMJKBBHb2wjJ6NFdEW/mmD0G0kZj4UZOJhRvKTgntM7oDSfPCWxBBHt0lee6xG3FVHg5RtLlnkb2yXG+S8i4RbeWbPsTQ1pSo4USm9yeENiM2qlEkEsQJf6PsXHzDbGSUcCTxUBFV32CH+wF77YEGtFXvixRDW1uihhObeiXa0AOOKGiHmMNws3+VaMxu0ZXaYsz6Y1uV1JiejlCszkH7NaOKxkRbY6KGHZ0+xSeD9i09eTwTLJyCtdhJK6I42YFybgyLJJcMGseqm8xB+yJjlS8Lba2JGnx9tNIKqbbr5uq1K/QH1iLO3gFRHpOl4+b9hDBJIQyVw/+QlGYXTjDNwasRmqpod7O2Hfm0tK/2RA3+8SfalRdtaDfyQJv2ztJ/302ypmWzgTUKET1cboP5M2GabJsqxyUJ7TqzXEzqRY0natj+ztupoV1jmLoRDbQxyepQG3Ohr4AU2wE5zU7cISIZNanKJhLa75QzLDva+hM1nHOvfxpos3ChaW1NrAjkdyywg3ui1CHDtk9Js9MDACl/BV2ka7HOs5aHUt5C9GYgUcORAL2TR5vGwxI/PRl2G7yXDXqMb8poEx4NZ5zLSArtBgHty6y9ouTd1NNRI7DGsmVpx4P2iGW8QqoYt2f7mTIZ+y2hP8h7VbTjuay8J3eRDAntBT0KzIB2YipRw5YA7VRK5Yt2l/XXBzQz6RF2iVwGhWZPILaDSBFt+W3MjHbGYm0K2oicPTYJGrT1D1ZkklzRrrP+Oh2XCckCEItXg2fGBnfU0CapHAl7Gz2pVCJhWFfGYm0y2kYTNTjbD7YlQHfRTqjeSkymN2r1uHlHkG1hs+3zokhgG9vKZyNru6tZo0gC2t5iYTW4o7RbHz3aLdZbw4Tke9pDicc1xsQ9lO2OEtqevHKdGe2MxdoktDONPlNaz5abJeXQvjZ120fIfBrMa5MR2JZtdssBcDDWlNCO5dGO+COj2GhnTbPjaI+tk21dApRD21511Jw9P77PoBf1upHaY096e31eFAlkdfy5PPlctDOn2TG0M48+yyyTmG+WFAm9c0K7xXBXEEEWcS2QUcBI0NKDBirIou2zf8QI2pnT7AjayKA3e3UdjzZPCpFNzwntkHWMI2k0NFp8ZKSPPdnJLz43iuShPZXxgXC0M6fZwSyBxUQN2yKZbpZ0BG22h+pzTzcM0j7dl4wCqRk7CNoe+0dq4gkTcbRvMwskoLSODHqz2tZls1kyV7Qr7CdeY//PEL2YkudRBe74X5Y8i32+i8hhNyPa2WaiIS/6M5AcvKVXArTXLCmC9igntEccnjxmhzq5wD65Q+r4glFjmYijHcxV2G1nQztjNzv8opblbOZDu88bbT8ntBu8B+Axi25ignmiNJbV2l4khvZICW2pTDuOdnaBhIL2k/15ZfaaJd1Am2yNllxlEmS7hx9+WDMr6+rHySAWQHuQA9oaBBIy2tYnOmGOpMlmSTfQJv/xhD97w2NaAHQEAe/C3lp7yUM7VEJ7kAltqQqSZNBoLMXQfsiFbLhZ0mClVK5o8/54Wsq5vtsjJLnEQM59MuexLbBWFyJELLQjJbRDmfooDG0JgcS7oUTHLfUpQ/olQDvNkr7LaI+I9Pm+3240vHBrc94WzPqK/kJ+NZF7EQC0p/OMaDcU0L4UrCBJxgEeVCfeaqsSvHc5P7JtVUo5jPbzDRdCf9S448QkKmyvhz4khMOD7uyaRLu7EBJIwiZB598PZKlhI2P7+ZFtaay8s2hHj9I8NvgyihLdzBEkyBZN9aP9IlIM4fWIe0GNm/vzXJeNSik30MYz6XFtoQltZbZXtm4cI2gnatsYqaHdRVxtWpo96tTIexHSPtn9POc1Nl8pJZInM4829sCjBwUSaSYVHYL9tNzOVAvDwczn053wXe00ccoLiEcyaKOudkwBO6ClYpxJ1ODrzfhMKSm0L0wNjsfQflQguycWtqDOXey12SfEA9/V5gpNMkkXBG2Oq02eIb6rOyCjHTznTzYsXhkJaaXQrtjqH7tXIJul/sOt27iNiFujTOeCSbTrLFebNhzfQ/X03BM1+DMxPVPKSbSjQIHsZ1EbQa7Sjrw2/6/y0wMj7WhXGQkbCtiHibXEa7XDuRvLdKWUk2grBH68y4+iqUDN83LGdk1+S6s04YaJU3W0X6lMesTh+LVOQonWaIVkRyqTOIk2mK2aNhvAaq/yNYTIL+hwnbVALO9BaBxG0jmRirjnS9TuIWgPKU+IcL/22mB7fLved4XtjtHDRGRm19Qy2gm/ay8MvcbM372xUYsfhYTi85eS1kSWbnG0F7JodylvPCH5IncJcavQONlzhW2jM6UaAnu+MI427EW2xEeFrAQ8sW/7QCr5lXhNKbqXPGrU0aaV/d1JHV1L6Nv6lDiCttGGMjfQDiknScfA6SR48EUydBMq+8LWxnuaNbxYEu0ZhDatLxI12j2PTQYkOr25Yrah/MWjKbQjZ9BeiLnFUmshwdZh35ds0SSlG6nHTmAtMWi2phJ/Hs6QVbmbtAWbL0gEDqokJmUSkSJ5y2iHssMUBFYoUodBPMmF6G6DBiJsKumHFLRpfZGBHNgI2zeuoG1QJnEabWJYpLQGGcYdcCTBNd2Av5G8KUrjXLTnFF+75ylYSGfMNuwpxSeDtja4R9k2jy0JBu2DwBx4vJt1Ikm0hxRFfK+QCOieJAvZdgZtWCZJTgftxdP9oNHKHDuruNpygrfoCiXRpuYxN5e+1sZSW/MoVvpteRmqJnEQ7Tnu3QYZnbBYpvLOLN2/U0Ubd4/jUPYISgTKYXKQSXpGxJuWg2h3tBc+tGQaZw3TfROLon3JLvxVWb/R0BxvQCZRv69WSDpwB+2IUBuRTSxpawyfstP9x0gM7Yp+tJcaRpoYWM8mZBIptG/toI0OEMnkI2/WNPtkMZ1098K80J5r2lDdq2NgNkkooIodfqRqCe159Bu9aKdlcdrOUB7dk9Y2e7OcTQn/ayyPth4PwjfebZtdJtE0m0SkIdU+2qsjCnFKnnJJ2CjTDWmWCd66eCOPth4PouFgAeDGmOmXSVxFG61GzqTDaosiBenGO7Sw0upEwHsyjHa+8xowth90Z9zdRXvFQ6BJIdEZRQrQTXQWEbhDAe+pAjX96lGiPUem7BA28klzx70A2nFeaAPWNpuP7OuNInG6A5FJCPeBWFISRjv75WOwcQycZZs9d1fho/LRDh1AO1vMoz+KxEQ1oIqKqlMCVxLfiLzbV3gKiR5R7H7hLNtjzY0JLqM90+NIxEaiSBrdrC7NcCLw4ODtPtNd9uG5y/ab3sYE/s7lh7avR/pbataG6dT8dZ/XzLbpVWT3KMPbfS3eciT6Lp9cZRuSSR71oe3niPbAKNoNpwonQl7lB7LdF9rTdLGz/naiNePuBNoNo2g3DQ+X07yQ7T5Pk5jR0bMd6sy4FwPtTOrA1M3ksqAglQ5q1dcqCg96cIltT2PG3WW0Z3ocL/E5DW4Zrip6Qbu+Uwe+LsIltsGMe8ZjyncYbU+L42VHIDGAdh29OFZjE4q7bEMZdz1oT91DO9Gi4Ye2BBJDaHeHJhh0lm19GXd+qJbu9btltOc3OsrBBi52lkigDZptjbM6nGUbyrh7ltCuW5uvTQiY71Q/YbtYAglhuy+MzOpwlm1PU497jmgLlNn3pXrBjUqIttYA3+66mVkdzrI91lO8PXIabbCXTPWZBsYrSLQu9Cob1CVZPBti+82dPXjUEko2XEB7JCBvKNdQuNkOKPBAgJ06NzPSFGbbnd4E6NLUfvadpAlLS/NoM6C7z0pm6GQTtyTa3Ut9cm8R2IbypV7mnQy5P5EH2unlXg9qH3BpqsXG0JqR0IYUwIxybyHYftYQSjqPdtYoUGSIkEuLct/b9dAMgq6y3ckeSuaJ9lAE7WnGKLBg2h/1epUXEEF9g8eRWil32H7LrOZ7OaJdEUE7q69dMO2PfnPQmaFxvY6yDYWSSlYp5ObqLKDNaGlNsozrS1ZX3vy2WNof4+agcwNzaBxm+3fAm2plQ7uRH9oLkShQtAJkfb/NoNEY+UireTG0P9asror+OTQktt3I3UA5yaNEu8E5g5MVyCvbvFrN1dUxU8Y8p3bB0MaL0SAJ8KMxtp3IS/YXC30OiX20bwVaDdK/frOM9jAPtiDLTdprFB5tYzKJc2xHfQ23uEY5ol0V0OUaC13LKwTZMbPO8tqQTIKynfPte7Aiqdzdzj2w80W7pQ3tm6IW/tmQSRC2g1z3Ku7pGSjBDbOImV87Le1zuB0h67pLCo/2h0tTtxohbD/nuAXwMC71sNYJtBnlHTcLnXA7b7lTYeCasGPdV3huZmKM7fz8N3gGUJaQIsgPbaFMe/ykk+3FjePpduZuQxKJ9oAPYTsngbujL0LiNkcaRHsokk7xFnoX78pnd9HGyNZcZA3PcMhHKOkv9PlF3ES0MNpX9Xr9SlHYZu3ic6DG8NRvN1oh4fKQYOyu0z0iV0dh6UgjthVRJh6sn3DIG8gYzXLRHgmhfXW77eC7lOkNPheryuPdoJtuxUrsHq2yN14YbuGNOpSvxY2rptun34l1bl7TRNDSqi8qHBuJJjOx4LIvpOMtLsQ1wnfRWur4LiBZZX9ll1druc5IElBN7gLWHb1Oet01aAQxn2zNtbpIrmTxaPN8Q5z9x6zWp8FzCgTQRpzAM3mJhF/7FLZWZSHr1Vh5GSKXgYZNnpGvddxzTKjJyHPqd1Sv6tNfLHJSAT3drha3YJuPNhbe3EpLJNorTr2ekAszablFd0JD+xbiLfxopqGMFLa/WXLd7rX7QtnRJgTuZ9JxpNbxN0lHIvJsek6OKq3Ts5ArOw3NWNIsZSApk8WDFYm7rz+EGGRGe29QPv34+uv+R19kC6Q09uSGbUroWAC6PTLaZ5gHAvmlmiXoL0ZlGLKP/2jAyQp5XxQe2nuH+Zc1HvG37X8MrySdbW2NAt6EUtMar8JK5203WWk9Izx2qDF2bDCas5GaTJB6KD3hA7eqlYf2zqn4svv6faNpV+ykjR6PhOqJ3O3FwBqL7vz97iZps1+IBu3eEHsRIUqZWJVGdDlYWdHeGd6vh535JuNuv+rsFKB5IkEH2Ktl0+Woktg+NiQf1X0zM6UeSRuD4r/cFMw3G0sdFMK36+hzf5KMaG9Fqe/AV/DT1iXpiqB9JnQBrpCxoXkiWGI9YZnunOk+vI1zkteGBESPJiTA+wUP7WQMNjNNZ8tE618cG9jNJgftS4ZLAe74UmIaNzA6JpPak4xpaUeio7Nsu6kIEq+frdMcDyh3qKkKMCFWowFohDcLcvYsXYva5v+0G0IeXt+cW88rv2Okfg99H9+h3/hVwmyf67g8jpqdoRexRt6Ng3SnAskLGW34JmHoxi49HuodO+MpXPOwVwd45TqoNKI1t5oN7e2+/0Lycc7kNBJVsx3RsjOQi00yUK2Ja3p3ephcUXxt+LsKVfzqmJdG6fzYp206KjXykbg00tObWQ00oP0V/pUfDAeG0TaiYiipnsjEE/ptltu9aNu+R+Hwboa0wVHIkAZPc/xFO8p662cTT5QqMBkFhIakEQzdDGh/Jn73ryQDSfnGZaonIl77FDPpfhjb7MtJXe0KNcv+kRGDZWY7pG7Eo5rJZvvPqDSi+5jkVbUGTLSviJnMzxL63wXNk1TOzgSSZU9sui263WNaBcklXUHo64zBAKPdR+LJP58s1FdsWRoRRHvBRHu363AcOf+JClhiZvtPEiaSmn2ZqDxfNt2W3O4ooPX8Xg3p/L7pYxsw2jfM3K20TxLZlUb0oH0GJSOhk1UwI3mpUMRGLcVWr8KOWVFlYMPtBk58RrSNzvuD2wdCTUZ7/TrhRBvbY7vSiB60d4n2TxH+S0PZqm3RQILmYtc62axrwqY7tGa0X1m9HqgBgDLjWVI3IdZz+Rd0L21To9VqCpZYYsouEpL2jIQ0s4xoo5n2zfom0yf8Ksf28obWFKZD/WLRXTMaVHaYRcGv9GZfSGfIwPYNKlbdU/bhDYg+Yg+aHBrs0jY1diRpWBrZrUZGtHebDpvtzzJow7dZcD4lTcXWN2IkJ7qBPOAFaZMu6HX6kLyt3JkAGO07RLCBLazg6ZWAWbEmXbM0Nxy2wYljuWjvRJIfymjDpW0PsXzsmNUTkYoqa2b87jtOJwc0y/J5TkdF1QRiRpv8DZfZ6j8n5wM7pqURDO1QDe19shzUyL7LDS65FeodoqVnbkyUE4dtZs+wds0EsJkXXCkJczs0sJ2gRpuoY0uWUh8sRGBVGtGG9s6hAPI2EesRsTvJqEcerRrV0LCzKGz9A2ZkNNKrd0/47XegAUinl8Y/v379GnaQ/EqmUyNBHCTlYoi0X2JKUXTMSCPa0N6H7+nvL2XEP1J/JWqIaR5CYKIpPV42RjWh4p/2UpfxvucabSRzs808Jr982v33/5gxLYkZ7cfMJhsMFn2r0ogs2vQMzC7ESc32D/GyVlrv8OrM333qsEXzDbTPOIvCQVtyIv10HGp4E6CJfBGLt1ep2+gr7V31sxjtmKyOPMnWr4F59LFVaWS3BqJoV7kZxS+wBbj+kIXtrZTEsJ43WqO5tYilOIFNQzk+YCJZZx00Oj5MvtHfkizbEZiIhEV2uAePuHfhdsHBww0h1W5JGsHiF3W0kXT7r7KuNpVtRlVeqNNUTzPn22rNgbr5Bj3la8GqhMV/9v+x3k9f+R1sNvZNEOxV1qYGmqL2apZXPF/dyQL7HTfbnx5rnzViHm0ob/NlIe2PEIZHs9cyd1NNdP1Hq3mD8m8D7E6/FW3d4C2pWjPASN8ges3i52qIIvFLGy3bopu32ZTImjSiE20w3S7VHEmZAchdWS9cT8JBc7ows9a2ywvFXRTQ/7zoajvbZMi5RyjsoUElQbFqixuFDkkaMV8unKJNvJ0vFkN75wWu2m2Wu5j9/YP8uhZ+cBnGB4TezJc31bWVQY7lHugq6TxrDMijNsFoC3xF7mwiqAhQG9spyj3EPaFcUCnVlrBxjpAbaiYWCuE50xpCMbT3J2X4A2sSXs/droua8Krok4usmuopOO5hVlOx5L7/1xsb0LfJ/MYg2fj5sKopUAdcX+hn24N/B9RryFMgop4s2aFNaUQv2og1OYyP6u6yMRfnYp0JVwxvcnh7qeqohS0VU31YMzR4ylbvuZ3Yh9/getFVcNt+xMkv6X/9LRW2b2CjfcfN/shcDDcmSSPzeXHQhsouF8NrQuXDsCpku6+qF8Qten0BH2tT2FSvxsEomFm/3QJSfDgjkdeuLXQvMbkU+vJ/CoHIXdFuA0FjC4khKRHDSPxb/EzIrVsaSa8LbTCfcCAbiegvBMdcvpwjdF/eviCncSBoqlVkvMZy6wi2ORG2eL2y2DpTkEl3UlEmtttwXfUNn0Hhbd30s0ewlPhk63YzXWgDmuvlFXHQgIC2Bdjul+prZbOq1dRTfxfsJ1E11bNWSHyADHlDH97nwnuT7uqv+/eRJib/a1m2E9h5AHyHHu1XmmKfaJt8sC+N6EZ738A7rLJinvMPWdYttxRyVdbUVjTVCVX3nHLY8FROhww7Uyc4DJ8P//bfSLI9hv2PHi+GnFOuhfsX4Nzxvn4shm/KsnhLtj60N3715XsXc8A/f/38SQ/bQIVgTb2siWmqSdZMxLGPvUyBqty+7H/pG+nd/uJJsQ2ka9qwxM2oIOxTqotXecj19UJA5upZ8w01uaD9oYuJfJWD7xD/kPZJ2JMdwAhH0VRPV8nxRHlnKGfGzFcJL4cvH1TQBsd2HVyS73MptluQkwcWj7DsK3ncc89jJIPsSSNYTiYz2rRhl7s/9E00LSFy+c0+w6RmqgN/xs+ID5TT+knoNWa++JdNUDvC9+F7RKpwiqXY7kE59o5o90tEgztiWPf7udUlivaZKor7qqnoh4R6y09X9LyGSlkTx1QThQPlwCcKV5CvKWeZ8tezrvLpBXZbH87Fn3MJtuF0DWC0+fNFyX2qwKxFdCLD89xNtOvyKHaJddxK9h9vojRevCQikMgdkBvQ2/6f0grW6ntdZSMOmirYbb0EZRNhtuF0TUdOfGbDjQyrfIjnx4M2OhFwd2XCUNVsV1WpnrYVSk5FBRLpNcuyp8jxBXrbnw7OtjjbcLoGMNqCnfGU0RnrItg4h9x6bmjvHfszxSd6rmaq1ayFnEAisxqZ0QakIsC5+gydMh6e7uamazoKBSghBe57uLnyLYd7sGyiLTWfmNcdbMRUZxJIBNcyU2iOmO1fCRoJSXzuC6RrQKMts1NtwRopt9BuZbIwGNq7rVT0SETLAlcVqMvMjt1/YqxmPpRPzjKmSYU42rEw23C6RsVobx8rb/alN88V7Zn+wxNSSDbrWxb9T7CsSc/RNxPL6avoJmkYqYz21eE1PlPR5rMNp2sUjfYObtbclnCeL9q+frQvsNrqrxkO4rp5U21SICFs+aUy2kDNwReKQ4KzjX3n4ZbITiYrG1GvD+/F8+ND+xXLeGwP41e92p8+Uw2smkyRoeq3Rh3ttNLyOzmMJLCNiRQ1MF2TxWgz4e5ER4j2Vq37gR3Gagdxqv39eZNV1mRjXzKttHDuSp3tdDd+In7O97kg23C6xtPgGnOzOEeD9rZl8hP25yoZQ6fVCYdPvjAV6820v7YG9Q9MSe7yNl8IogmbbbglspfRaLPg7oXHhvZO0/iiB+2KOe+XpdANtL92Kju9Z0A7LZDfptu/I1acyDaYEgy1G21GFsc7NrRvsRMyA9qMgta5QcsaGjwRqhnQBmYAJmAQiVbswVlBoBPgBkrXTLQYbXoWxzsytK8xO6KOdteg98tK0+mP7xMN6h+kGP0AW8g+o38OYfsZN9odrEEy44pxofspOS6097N3Dh8rVn+idYPer1XtT4/6B3loIdAc+WXOZntvP2+g0RdNiZI/tSzOnbNoX2WxLN9gF/Y2m285sLAtgUnvZ6pB/YPyNmkXE3rR4ZbtB7xsOoagS/T3m2Oj/iNX0c5W0rQXAH9Rj56qBr1fq9ofOOzgKhPbpHqxf4UoOX/EEpPwrPixWHNNJqF7eWRo71MLO7a/qTs3rwa9X6vany71D5m4zYzXULYjeFY8kK7R6jdAtw81jgztQw7x1ygNoE5b+9Ol/tEq2ImHGtLx8vENMtOA8qfZbkR/THvcjw3tQ7XDt3ivUKnl2Y21BtjW/rSpfxSzHZBdij6lTOFmjjZIFsi1y/CXmxoCnoNH+DX6rm6qula//TOj3o8m9e8DPEye19BCYTuElL/lyaCto5IHi3aUyrXrVn0236z3o0n9Q+ZXpC0t5L96TzPaTX3pGsbXeHSEaCNsn2e0Ty0Lu2Kw7k/ftsLf+L/FHxjpkY12sjC4t2NXw0hNzwAKd+oZX6Lw2h9oJq+zsr0zG8Pzf0Mgrf2Ml50+Q4Xa6trzcj0zCn80cY6pditof6hfZHUvXw0Ir9QVQ8PC3FX/NsdZZXF5vp5lAtqPJ0qIEONs3881KH/pNQlTv9nYXNaEfZei40T7Q7ea8WFe2tT+QsOnqKdLIqH6fb+PeAymcyizK3/RA6nvGp4sdDM/UrTXFx4Msyi5VrW/luFTVEfnL8F8gJO3P9Io/EhvwlO+Iqgj0La6PF60V1t/VjlXzSxfWQ20G6Yde23qH13mps1HiN6o9P0ue1hMXfaNtk209SgBNgLtkWkH8eCCDrXu0rXQ8Mg+lT/VQTgCaMcl2pT1bjXQ9k079n42kV8shUM9ce6pAD48ZzQFtHU/dxbty5zRzkn7M+XYzzRKJJQhDqy7NVa3+zV+Q2ZwnC0sdnJ6FBvtSs5oV2xqSJFxx36Qabiz2EatwsJIIfZTmjv56CDZqdfnNtoXx6T9aSyQYsskb2xb+0TWSVTc4k7gmDcCwus22laLbMyWtG48goWxjQXv6uS4FzGZR7VLwuKfVLRbJdoioX/bwp40zDv2h79wYVBM4gbdcU8j22nfzh9XI/JHwG3GDRfRXjiC9ovVbZqZl6xMSk/v4qIbJYGjMoAyRKWZsERbTiBZ2twTc45925REgmbcHyIxtn+fcWxICFyDgzpdJdpCD8uG9G+4pNWsRAIX3HAVjx3bHyPkGgM5tj1wqk4bhadZou1IY6SNxhBzEolwxv2AZdMfebjjLcH2c4/YnJlff00x0O6+giZo8dcsbEliwdwkZncWkklEtTfE8RZmG0ncP85LtKWfkaXiKCvxj0GJBMu4P6tBKpiYHCMxaIL5dSXaIr1/NiKSlo16FdPVObdKYl6fc48CyRuh5md88yFLgdHGbkL4j45D1jYskcBtSbyMO53tj/yOpiSg5tR9qwFS0dC+RdH+fy2UkDRt9KqZlUjQjPvjXI1t7uXTaNdOf16ireaPrCb1RPa2xOQjMSuRbLo3hvJ+M+46s38RUQzhiLVZDLSruZDd3d8Yknz5bI9tK71qiXmrUVfT8jzhain0do/HhOLYJSXa5IezvZwl/rxYYNc+FVXWBv/K0Nj2nQn0uPPZXoyJxgQaVblafxonecQsRUX7HbirJb3TwnCu3eyUVoLb0zW2fxIZd4htxM3o4R530g+4E2JLtLmlIweUv9Cno2tc5kta7UgkWMZd/L1h1a43IWKxRboNBq6gTfL1IyfQxq4h/1J87U/jJGJtGXfQKGMVgSDczw9CvTmhy2iHjqG9u9HWrNlu2ynFCjMOQVTI5kpkoCK87f0A91iw6yy0ekVL0dFOLDBnSY6N7AirYj3uAg732uf2ojlx1kOf8+VtlGhz0Z7/2PzLLyZ35LeW7qcM7AzCuOVPlRfLxmwLVpd94QkPJdpctH9iMd634mt/+i5rksm4y7Wri8w7Y9zAnli9DrFgaL/gNvqTaVfB9JRWQrj6Yjbvdak8NuF3GcCe517V6jTa17iN/mw65LZ2jHq2NlepeJuUu6E433y0FyXa2MKn6nw1jfbAVhtmbK1A50UtlOxwwRZ17Uq0aY1jXzC0v5rbkJk1NdZwNwKW1ZUs3u6zwX66F/+ANTfQjsPWeorEZk3zRvsd80h+mkbbXimmjVQ7IeMuVrwdccgW+YY8OONrx97Mr1E+yXs+aF9h9tM42oG13hArqfZdKHkhPC5tRzacjny8U5nCs8i3zcZfCK36hzw9km8WHRJ7YX3LouGACt87smSvdJWo1ZP2apzxtZnrLCe0dzXHPxG0zUV4oT0x1k6qHYzHRfuA4wdSsjFs70+0GyGyk2KgnZOvvTfbn2Jb4t/SXuFDpO9mVEm0OUYXKfwDhJDlKgprD2LZr67TaOc2h2Rntr/vY5/vhods2ywyrtm7cwIdNMzaQC/LHCky2lEeaI/E0H7PC+0P/xrUN5bsW8pMrabFEWxNe6GM4F3XeKImUN+GwcKimWBaKSfDyA8f/n2oJ/In0FJWcO0PfPbvttGmh5L3usgG0SrRpjvba1O93p9vWMGUKYHEwv2UZq6PFEObRpv0IBIhh8AttNcpm986gDbwln6JEtMd0onNEWyRvVCGkHNJBMiO9ByATqBd82eDMIyw/zE3tKGrED99M13TarfGOLAWR4rdxxQ9arlGEpO1rdyIyEA7aA7CiPY/5ob2GeGhGOyNbFl9GumRfW0fbbzAFU/U6DmTcupFYIpdDqB9iz8Sg/qIxeIoeH8Np8SuRG4G00s2qP05hnYchoNR/mhf4k/EYJbd8py6pa04Mh0k9f9QQ0kkBZn51PLcQjsJV3V/Mx+vksoN7bQD72C0Ter/9oqj4KC1Ygvtxj1l7A49BakhissZ7enUQfEvfSbN5If5KSSR5Z4nW3EkgDYkgqRjd8Ig6xVk6AKvt2nmi7aTunYVLOlIvn5ffDbqA1ssjrIaR4JoQy51X3cKMl2gpfQdRjsvf+TVrjTasnyENizlI0G04WnvHoHsBy01BosSbeYa2i0ea1u9NAeMI8/toQ3d0bGZ4OppTNQcfPfc0V4KkX2RE9lXNvPekEBip53PVl1rHbbSYENvL9KagiQKJJaeHkN9dK8T4cyy77uwXWJsqa61jvh1b2DOESb7UZMABbsDzqJ9m5c/cm43VRsrzsdTX5bqWlG0owntUfd1fbKR+2hXKuf51UZd2r0zYmm97MFSXesL+o2NnwyTPQ8cR/vlQ66ra9n1tZ9lSLf/1Y6GGhLVPvGGYPkowgW0a74/a6zq/uKWA7WsiLGxo/mPLN8rDBJwYRdt0pRsnScVYjLjXNFuEP6tmi/aaW1Uy3JQZ212xtTKnB0C2vNHk2SD3WN5FWw7jfal3W89fIjaaVW1M2eHhHaEXNvxpDW6aOaP9pyAdpK/NIK42oHlr7m9p9GyYkZIaMNJFT3JdfIBmDvabcK/VU7K1YYP0YHlr1PFNtpQh69msiODvo482r5zaNt2teFDdGR5/4dW0IZE1DdTZGPCW8MVtKd5J9i368JygA0fopbiSN9G8V+VrMIdMjcfdacNWq6i7edeFgUXkNihLFnkIVjNbFQzUNDed9Z81B4yt11Au+Ys2meWXW20Uqxl+a+e23DtUJ94PF1MO/rFILStxf5FTas58aS75GaWLscSLSCxAxla39u0fFYYLP6r2E4LYlNt7KnZ4WA1c3NBS4Y2nEhHDu0WkODjDy0fm4vjQTu0jnYULtdNvZSCEcfQvrZ9FQq2IUsrf9ZG8Z9ttFvW0I5Dr9GmXuaBf+qlC/VR77YucCRmMOz93cYRot02jvba72j6gViP2IJ0nlRdcLWX+VgaS8LM0sJm20Z7ujDk3CUrIz3zpwvJ5RjaFcvVHM1FPh5JeIRoL3SjLWekF3RBIHYKbUu5kxpzS0q0s0SRqn937UnfyRtp1sBlixcI8R/Hn2aNpfnymoS0J9HRoe2PGo11UX5ockdbGXcyWckdKwUvWGhZcEmjC0UkFcTx9dtGCU/bTmaBVUF9bKGHrMIYoj5bse6tUNeYfG0LT6pHBLyN21Fb6Fy/aSVz19B+Jd8yuybcRAo8fRxeev9nzzzZno0RXbeiIExXrK/teqMVZqCdYG5/FzJstH6ie9TvlAtov7Peem202nyt7kK6s0lsLZBMvI9W5hidZcHE39v2rSPDB57Sbxv4K7O0f5HB+vXafnY/Gnmvo8bm6oOQirbvANrXIp9EmwlPwARROsrgxmA+GL023GDjb3e40L42xG9g3Xk06xWt1bl0+/71hZ0V+M31OUP6dlHRzrOqtSJ8iv7N1dZq8wvakJOgOce/zQdPrc8xqi5yWa3A7OtPV18tL0xYBwcV7TxL/67lPubqGp4MPkoTbAiJ0idyZx5pG6PRupe5oJ20zbzu3u8Q8ImcRFvJQwzW90wlWSKf9S/f6TLbAkjbKdfJhe2J4Nw9cevVXvkdIh6o62h/eFF2EVc3iUvF9zFciwWI3GPVZEMLr63Mc6xitzq0jrZHHncib654Rrp4aH/ovlcyuWJNUSl8gBTNpyP9A0kfZ2Wm2wpCloW0b9e2w/1I0bjFPenZypNWkgncR3u76vXqbeVC/RgTEAoniNwXypvtDdOKYdPQSoVlOtTybq29jVYCh8kwb3fpakfe7UDkjiNGe7uusp5qDB8lwjLCN+I9kslax8vEyHn3g120G0jKZJ3YbqzSJjp15kOTfDKuiRIt6XaooP1XDqKdPphR21c/5EarMy6iS38jPElIH2SwIqKZmYWL6pX1HWzwvqzh+iq6He1qecLHBP32+5T050wf0QJoNxxE+x2MTlbSwypMU8/NIgUpTbxqpAdWALZg0WX16L0sfx1cV3kYB5UG801KZmPd11nE9WKVkYaMF9kvg8VnxUKbOAEpm90MNop/BEp/MaG2w4Au+9s8WvSyoc008XvoG9t8vJ0KeyW0mw6izWhNWJ13GXwUsJimRoosteaDB5sAKVVkXoqOtpOrWGHkJa+sfeWjzLKG/DNukY+alW4iqYZc+phKtB1FO+WE86myuMFgpV8nO9LT0c5K07f+tkT71NFOtT+hti41JxzuVXvL7sRTVx5lwyXabqKt9FxiSSccvsslelSocpgNhLINJdqW0B64j3YV0v4kY/jWTEicfYiozV2ZMkKElccOnyTaDdrGD51B+5Z6xAh/XI/nozzjv3MjUqiiUC0+KtHOB+2aA1024tqfLhNOPA5iepo4S49PHrPnSrTnzlyLAK4LnvYnW3SKNnD1nulF161dyjntmWqF2Qq5S7RLtGW1P5Wy6jWvS7t7n45Dey/Rtoh2ZKMVVW6l3WS/ObK9r5ZoW0TbmYsjj/expH085+Uenjbaqfb35Tg2Pwefr0QbnNl25gra2bU/x1ZgpZO9RLuRf/huSftzZuWQsynRBmtar11BW7P2l/8alWjngbaDeXYz2l+OK4eTsUQb8AMvXCFbsu6vRLtEm/hRI/cyNsf3VDz7oXqJdj518uz1rl73V+ZsSrQPq5NDElhY1g5LtEu0ldFul9rfUeZsSrSBW/+6rqB9eWzaX4l2HminUaQzAsnxaX9ATfxlibYttJfu1f11scFlxV/2kwcl2jP3oshjfCgl2vbRnroXRZ7hM/kKv2bWx/6dPNrAQF5nXO3j0/7ySEeePNqeg91jr5qulnFpDUq0baPddM/VBmTtY9z9sxJtO2gH7lW0fhgSJqkez+7bSkd2TxztLw6q2scoa+eRaT9xtJs59KOKn6SzI9p++xt92mgD+siLg2g3jhHtSom2DbTTjl93xv0B2t+yRFsH2rNTRLvnoD9yfO3scGrMPtr+CaKd1o84pI8cpfaXR6b9pNG+cVEfOcaS1hJty2gDVxO9O4T2cT6SZom2RbRToz3sukN29+ja2TerYb0+6oTRBpQ/h4LIY00Q26+POmG0w1zuVz7JktZc0B6eLtqxk0b7KEta52CJpS20Kyfsa9dcNNofzvEb1I9r+99toz09PbQ910brHLGsnUN91JFupJiuvZ2uc951Cu0L8mW8Jdol2hJoz/+dl2r1+oNb60gD+6RE2wLa+9t+/92/8cG9dXVkNzQdlvXRiqeI9lZ5+LP/9IOL62j7nqyX/t2eKNp/73/54OY6O7oprXmhXT1OqYmN9j/7x//0g6vrSGXtXNEOjxztdFzA//TB4XV+hJMaNmtaom1qOXjR2EkFP77tAuKzEm231sURTmqA0bZV1Vo/zmKc4qJ9tPVqOaLdOBm0rx0mO5W12yXa2db1CaLtstE+XlOTY5vN6MjRHhUC7ZejdRAbZQfZ0RyIGa32sYX1P62PfLk8Vt8OXTeFQDv1tf/VPzuu9V9Yv57zIGz/l3923OvfdG+QNmm9OllErlFnvrRWQ9y9dLCJyqg9PHP6be6eR6V7fE/gZfXRhjar47vr1O6w+uHo11lBvsNnr5XXsw/l0hO71E/jY64O+0tD0Pz/3iMXwprRMu0AAAAASUVORK5CYII=" vertex="1" parent="1">
                    <mxGeometry x="592.72" y="80" width="183.47" height="190" as="geometry"/>
                </mxCell>
                <mxCell id="17" value="" style="edgeStyle=orthogonalEdgeStyle;fontSize=12;html=1;endArrow=blockThin;endFill=1;rounded=0;strokeWidth=2;endSize=4;startSize=4;strokeColor=#34A853;dashed=0;entryX=-0.148;entryY=0.519;entryDx=0;entryDy=0;entryPerimeter=0;exitX=1;exitY=0.5;exitDx=0;exitDy=0;" edge="1" parent="1" source="18" target="19">
                    <mxGeometry width="100" relative="1" as="geometry">
                        <mxPoint x="390" y="170" as="sourcePoint"/>
                        <mxPoint x="490" y="170" as="targetPoint"/>
                    </mxGeometry>
                </mxCell>
                <mxCell id="18" value="" style="image;html=1;image=img/lib/clip_art/general/Earth_globe_128x128.png" vertex="1" parent="1">
                    <mxGeometry x="260" y="70" width="80" height="80" as="geometry"/>
                </mxCell>
                <mxCell id="19" value="" style="points=[];aspect=fixed;html=1;align=center;shadow=0;dashed=0;image;image=img/lib/allied_telesis/computer_and_terminals/Smartphone.svg;" vertex="1" parent="1">
                    <mxGeometry x="550" y="82.80000000000001" width="42.72" height="93.2" as="geometry"/>
                </mxCell>
                <mxCell id="20" value="Hosting" style="text;html=1;resizable=0;autosize=1;align=center;verticalAlign=middle;points=[];fillColor=none;strokeColor=none;rounded=0;" vertex="1" parent="1">
                    <mxGeometry x="270" y="150" width="60" height="20" as="geometry"/>
                </mxCell>
                <mxCell id="21" value="User" style="text;html=1;resizable=0;autosize=1;align=center;verticalAlign=middle;points=[];fillColor=none;strokeColor=none;rounded=0;" vertex="1" parent="1">
                    <mxGeometry x="552.72" y="180" width="40" height="20" as="geometry"/>
                </mxCell>
                <mxCell id="22" value="" style="points=[];aspect=fixed;html=1;align=center;shadow=0;dashed=0;image;image=img/lib/allied_telesis/storage/Datacenter_Server_Rack_Storage_Unit_Small.svg;" vertex="1" parent="1">
                    <mxGeometry x="50" y="82.80000000000001" width="77.4" height="67.2" as="geometry"/>
                </mxCell>
                <mxCell id="23" value="" style="aspect=fixed;html=1;points=[];align=center;image;fontSize=12;image=img/lib/azure2/compute/Function_Apps.svg;" vertex="1" parent="1">
                    <mxGeometry x="266" y="240" width="68" height="60" as="geometry"/>
                </mxCell>
                <mxCell id="24" value="functions" style="text;html=1;resizable=0;autosize=1;align=center;verticalAlign=middle;points=[];fillColor=none;strokeColor=none;rounded=0;" vertex="1" parent="1">
                    <mxGeometry x="274" y="305" width="60" height="20" as="geometry"/>
                </mxCell>
                <mxCell id="25" value="" style="edgeStyle=orthogonalEdgeStyle;fontSize=12;html=1;endArrow=blockThin;endFill=1;rounded=0;strokeWidth=2;endSize=4;startSize=4;dashed=0;strokeColor=#4284F3;entryX=1.005;entryY=0.5;entryDx=0;entryDy=0;entryPerimeter=0;" edge="1" parent="1" target="23">
                    <mxGeometry width="100" relative="1" as="geometry">
                        <mxPoint x="574" y="200" as="sourcePoint"/>
                        <mxPoint x="570" y="140" as="targetPoint"/>
                        <Array as="points">
                            <mxPoint x="574" y="270"/>
                        </Array>
                    </mxGeometry>
                </mxCell>
                <mxCell id="28" value="" style="edgeStyle=orthogonalEdgeStyle;fontSize=12;html=1;endArrow=blockThin;endFill=1;rounded=0;strokeWidth=2;endSize=4;startSize=4;strokeColor=#34A853;dashed=0;exitX=0.456;exitY=-0.014;exitDx=0;exitDy=0;exitPerimeter=0;entryX=0.436;entryY=1.084;entryDx=0;entryDy=0;entryPerimeter=0;" edge="1" parent="1" source="23" target="20">
                    <mxGeometry width="100" relative="1" as="geometry">
                        <mxPoint x="420" y="160" as="sourcePoint"/>
                        <mxPoint x="520" y="160" as="targetPoint"/>
                    </mxGeometry>
                </mxCell>
                <mxCell id="31" value="" style="edgeStyle=orthogonalEdgeStyle;fontSize=12;html=1;endArrow=blockThin;endFill=1;rounded=0;strokeWidth=2;endSize=4;startSize=4;strokeColor=#34A853;dashed=0;entryX=0;entryY=0.5;entryDx=0;entryDy=0;" edge="1" parent="1" target="18">
                    <mxGeometry width="100" relative="1" as="geometry">
                        <mxPoint x="130" y="110" as="sourcePoint"/>
                        <mxPoint x="520" y="160" as="targetPoint"/>
                    </mxGeometry>
                </mxCell>
                <mxCell id="32" value="Storage" style="text;html=1;resizable=0;autosize=1;align=center;verticalAlign=middle;points=[];fillColor=none;strokeColor=none;rounded=0;" vertex="1" parent="1">
                    <mxGeometry x="61" y="150" width="60" height="20" as="geometry"/>
                </mxCell>
                <mxCell id="33" value="" style="strokeColor=#dddddd;shadow=1;strokeWidth=1;rounded=1;absoluteArcSize=1;arcSize=2;" vertex="1" parent="1">
                    <mxGeometry x="50" y="240" width="100" height="60" as="geometry"/>
                </mxCell>
                <mxCell id="34" value="Firebase&lt;br&gt;tools" style="dashed=0;connectable=0;html=1;fillColor=#5184F3;strokeColor=none;shape=mxgraph.gcp2.firebase;part=1;labelPosition=right;verticalLabelPosition=middle;align=left;verticalAlign=middle;spacingLeft=5;fontColor=#999999;fontSize=12;" vertex="1" parent="33">
                    <mxGeometry width="32.4" height="45" relative="1" as="geometry">
                        <mxPoint x="5" y="7" as="offset"/>
                    </mxGeometry>
                </mxCell>
                <mxCell id="35" value="" style="endArrow=classic;html=1;exitX=1;exitY=0.5;exitDx=0;exitDy=0;entryX=0.027;entryY=0.514;entryDx=0;entryDy=0;entryPerimeter=0;" edge="1" parent="1" source="33" target="23">
                    <mxGeometry width="50" height="50" relative="1" as="geometry">
                        <mxPoint x="450" y="20" as="sourcePoint"/>
                        <mxPoint x="290" y="-90" as="targetPoint"/>
                    </mxGeometry>
                </mxCell>
                <mxCell id="36" value="" style="endArrow=classic;html=1;exitX=1;exitY=0;exitDx=0;exitDy=0;entryX=0;entryY=0.75;entryDx=0;entryDy=0;" edge="1" parent="1" source="33" target="18">
                    <mxGeometry width="50" height="50" relative="1" as="geometry">
                        <mxPoint x="160" y="-160" as="sourcePoint"/>
                        <mxPoint x="300" y="-80" as="targetPoint"/>
                    </mxGeometry>
                </mxCell>
            </root>
        </mxGraphModel>
    </diagram>
</mxfile>